<?xml version="1.0" standalone="no"?>
<!DOCTYPE svg PUBLIC "-//W3C//DTD SVG 1.1//EN" "http://www.w3.org/Graphics/SVG/1.1/DTD/svg11.dtd" >
<!--
2013-9-30: Created.
-->
<svg>
<metadata>
Created by iconfont
</metadata>
<defs>

<font id="zgfont" horiz-adv-x="1024" >
  <font-face
    font-family="zgfont"
    font-weight="500"
    font-stretch="normal"
    units-per-em="1024"
    ascent="896"
    descent="-128"
  />
    <missing-glyph />
    
    <glyph glyph-name="share_closs" unicode="&#59081;" d="M573.44 384l181.76 181.76a43.52 43.52 0 1 1-61.44 61.44L512 445.44 330.24 627.2a43.52 43.52 0 1 1-61.44-61.44L450.56 384l-181.76-181.76a43.52 43.52 0 0 1 0-61.44 42.496 42.496 0 0 1 30.72-12.8 41.984 41.984 0 0 1 30.72 12.8L512 322.56l181.76-181.76a41.984 41.984 0 0 1 30.72-12.8 42.496 42.496 0 0 1 30.72 12.8 43.52 43.52 0 0 1 0 61.44z"  horiz-adv-x="1024" />

    
    <glyph glyph-name="member_student_handup" unicode="&#59079;" d="M378.453333 4.693333A81.92 81.92 0 0 0 295.68 85.333333a602.026667 602.026667 0 0 1-23.893333 197.973334C238.933333 364.8 154.026667 430.933333 109.226667 640a78.933333 78.933333 0 0 0 64 102.4c79.786667 11.093333 98.56-76.8 98.56-76.8a464.213333 464.213333 0 0 1 137.813333-263.253333c120.746667-110.506667 305.92-119.04 305.92-119.04 16.64-2.986667 134.826667-11.093333 199.68-226.56a42.666667 42.666667 0 0 0-39.68-52.053334z m241.493334 758.613334a194.133333 194.133333 0 0 0 195.84-193.28 197.12 197.12 0 0 0-195.84-192.853334 193.28 193.28 0 1 0 0 384z m0 0"  horiz-adv-x="1024" />

    
    <glyph glyph-name="third_live" unicode="&#59078;" d="M991.744 574.464a41.472 41.472 0 0 1-39.424 0l-146.432-66.56V588.8a91.648 91.648 0 0 1-92.16 92.16h-614.4A92.16 92.16 0 0 1 7.168 588.8v-512a92.672 92.672 0 0 1 92.16-92.16h614.4a92.16 92.16 0 0 1 92.16 92.16v85.504l146.432-69.12a43.008 43.008 0 0 1 17.408-4.096 42.496 42.496 0 0 1 22.016 6.656 40.96 40.96 0 0 1 18.944 34.304V537.6a41.472 41.472 0 0 1-18.944 36.864zM723.968 76.8a10.24 10.24 0 0 0-10.24-10.24h-614.4a10.24 10.24 0 0 0-10.24 10.24V588.8a10.24 10.24 0 0 0 10.24 10.24h614.4a10.24 10.24 0 0 0 10.24-10.24v-512z m204.8 116.224l-122.88 57.856V417.28l122.88 57.856zM355.328 529.408h-153.6a40.96 40.96 0 1 1 0-81.92h153.6a40.96 40.96 0 0 1 0 81.92z"  horiz-adv-x="1024" />

    
    <glyph glyph-name="setting_mirror1" unicode="&#59064;" d="M512 755.2a29.866667 29.866667 0 0 1-29.866667-29.866667v-64a29.866667 29.866667 0 0 1 59.733334 0V725.333333a29.866667 29.866667 0 0 1-29.866667 29.866667zM512 358.4a29.866667 29.866667 0 0 1-29.866667-29.866667v-110.933333a29.866667 29.866667 0 1 1 59.733334 0v110.933333a29.866667 29.866667 0 0 1-29.866667 29.866667zM512 580.266667a29.866667 29.866667 0 0 1-29.866667-29.866667v-110.933333a29.866667 29.866667 0 1 1 59.733334 0V550.4a29.866667 29.866667 0 0 1-29.866667 29.866667zM512 136.533333a29.866667 29.866667 0 0 1-29.866667-29.866666V42.666667a29.866667 29.866667 0 0 1 59.733334 0v64a29.866667 29.866667 0 0 1-29.866667 29.866666zM186.453333 653.226667A49.92 49.92 0 0 1 128 665.6a53.333333 53.333333 0 0 1-29.866667-49.066667v-465.066666a52.48 52.48 0 0 1 29.866667-48.64 42.666667 42.666667 0 0 1 20.48-4.693334 50.773333 50.773333 0 0 1 37.12 16.64l213.333333 232.533334a55.04 55.04 0 0 1 0 73.386666zM157.866667 170.666667V597.333333l194.56-213.333333zM896 665.6a49.92 49.92 0 0 1-57.6-12.373333l-213.333333-232.533334a55.04 55.04 0 0 1 0-73.386666l213.333333-232.533334a50.346667 50.346667 0 0 1 57.6-12.373333 53.333333 53.333333 0 0 1 30.72 49.066667V616.533333A53.333333 53.333333 0 0 1 896 665.6zM866.133333 170.666667l-194.56 213.333333 194.56 213.333333z"  horiz-adv-x="1024" />

    
    <glyph glyph-name="join_option_down" unicode="&#59058;" d="M479.573333 625.493333l-291.84-341.333333a42.666667 42.666667 0 0 1 32.426667-70.826667h583.68a42.666667 42.666667 0 0 1 32.426667 70.826667l-291.84 341.333333a42.666667 42.666667 0 0 1-64.853334 0z"  horiz-adv-x="1024" />

    
    <glyph glyph-name="join_option_up" unicode="&#59059;" d="M544.426667 185.173333l291.84 341.333334a42.666667 42.666667 0 0 1-32.426667 69.973333H220.16a42.666667 42.666667 0 0 1-32.426667-69.973333l291.84-341.333334a41.813333 41.813333 0 0 1 64.853334 0z"  horiz-adv-x="1024" />

    
    <glyph glyph-name="join_option_check" unicode="&#59060;" d="M982.186667 680.96a59.733333 59.733333 0 0 1-85.333334 0L393.386667 213.333333 126.293333 460.8a59.733333 59.733333 0 0 1-85.333333 0 60.586667 60.586667 0 0 1 0-85.333333l311.466667-290.986667a57.173333 57.173333 0 0 1 11.946666-7.68l5.973334-4.266667a73.386667 73.386667 0 0 1 23.04 0 64 64 0 0 1 22.186666 0L426.666667 76.8l11.946666 7.68 545.28 512a60.586667 60.586667 0 0 1-1.706666 84.48z"  horiz-adv-x="1024" />

    
    <glyph glyph-name="tips" unicode="&#59054;" d="M512 822.857143a438.857143 438.857143 0 1 1 438.857143-438.857143 438.857143 438.857143 0 0 1-438.857143 438.857143z m0-804.571429a365.714286 365.714286 0 1 0 365.714286 365.714286 365.714286 365.714286 0 0 0-365.714286-365.714286zM512 296.228571a58.514286 58.514286 0 0 1 58.514286 58.514286V603.428571a58.514286 58.514286 0 0 1-117.028572 0v-248.685714a58.514286 58.514286 0 0 1 58.514286-58.514286zM512 164.571429m-58.514286 0a58.514286 58.514286 0 1 1 117.028572 0 58.514286 58.514286 0 1 1-117.028572 0Z"  horiz-adv-x="1024" />

    
    <glyph glyph-name="feedback_enter" unicode="&#59053;" d="M832 25.6H192A38.4 38.4 0 0 0 153.6 64V704A38.4 38.4 0 0 0 192 742.4h354.88a38.4 38.4 0 0 0 0-76.8H230.4v-563.2h563.2v256a38.4 38.4 0 0 0 76.8 0V64a38.4 38.4 0 0 0-38.4-38.4zM522.56 327.04a39.68 39.68 0 0 0-27.2 11.2 39.04 39.04 0 0 0 0 54.4L800 697.6a38.4 38.4 0 0 0 54.4 0 38.08 38.08 0 0 0 0-54.08l-305.28-305.28a38.4 38.4 0 0 0-26.56-11.2z"  horiz-adv-x="1024" />

    
    <glyph glyph-name="im_more" unicode="&#59052;" d="M512-32A416 416 0 1 0 928 384 416.64 416.64 0 0 0 512-32z m0 768A352 352 0 1 1 864 384 352.64 352.64 0 0 1 512 736zM316.16 384m-58.88 0a58.88 58.88 0 1 1 117.76 0 58.88 58.88 0 1 1-117.76 0ZM512 384m-58.88 0a58.88 58.88 0 1 1 117.76 0 58.88 58.88 0 1 1-117.76 0ZM707.84 384m-58.88 0a58.88 58.88 0 1 1 117.76 0 58.88 58.88 0 1 1-117.76 0Z"  horiz-adv-x="1024" />

    
    <glyph glyph-name="member_no_talk" unicode="&#59051;" d="M199.68 817.28a38.4 38.4 0 0 1-54.4-54.4l679.04-678.4a38.4 38.4 0 0 1 54.4 53.76zM128 679.68v-409.6a128 128 0 0 1 128-128h34.56v-128a33.92 33.92 0 0 1 58.24-24.32l141.44 154.24h175.36zM768 759.04H358.4l537.6-536.96V631.04a128 128 0 0 1-128 128z"  horiz-adv-x="1024" />

    
    <glyph glyph-name="auxiliary_camera" unicode="&#59049;" d="M128 513.536a40.96 40.96 0 0 1 40.96 40.96V727.04h172.544a40.96 40.96 0 0 1 0 81.92H170.496A83.456 83.456 0 0 1 87.04 725.504v-171.008a40.96 40.96 0 0 1 40.96-40.96zM341.504 40.96H168.96v172.544a40.96 40.96 0 0 1-81.92 0v-171.008a83.456 83.456 0 0 1 83.456-83.456h171.008a40.96 40.96 0 1 1 0 81.92zM896 254.464a40.96 40.96 0 0 1-40.96-40.96v-172.544h-172.544a40.96 40.96 0 1 1 0-81.92h171.008a83.456 83.456 0 0 1 83.456 83.456v171.008a40.96 40.96 0 0 1-40.96 40.96zM853.504 808.96h-171.008a40.96 40.96 0 1 1 0-81.92h172.544v-172.544a40.96 40.96 0 1 1 81.92 0V725.504a83.456 83.456 0 0 1-83.456 83.456zM696.832 384A184.832 184.832 0 1 1 512 199.168 184.832 184.832 0 0 1 696.832 384zM512 281.6a102.4 102.4 0 1 0 102.4 102.4 102.4 102.4 0 0 0-102.4-102.4z"  horiz-adv-x="1024" />

    
    <glyph glyph-name="btool_setting" unicode="&#59050;" d="M621.568-25.6a40.96 40.96 0 0 0-38.912 28.672 74.24 74.24 0 0 1-141.312 0 40.96 40.96 0 0 0-51.2-27.136A422.912 422.912 0 0 0 204.8 88.576a40.96 40.96 0 0 0 0 54.784 70.656 70.656 0 0 1 17.92 47.616 75.264 75.264 0 0 1-81.92 73.728 41.984 41.984 0 0 0-44.032 32.768 425.984 425.984 0 0 0 10.752 212.992 40.96 40.96 0 0 0 37.888 27.136 74.752 74.752 0 0 1 76.288 75.776 71.68 71.68 0 0 1-7.68 32.768 40.448 40.448 0 0 0 8.704 48.128A421.376 421.376 0 0 0 398.336 793.6a41.472 41.472 0 0 0 47.616-20.992 74.24 74.24 0 0 1 132.096 0 41.472 41.472 0 0 0 47.616 20.992 421.376 421.376 0 0 0 175.616-98.304 40.448 40.448 0 0 0 8.704-48.128 71.168 71.168 0 0 1-7.168-32.768A74.24 74.24 0 0 1 877.056 537.6a43.008 43.008 0 0 0 40.448-28.672A430.08 430.08 0 0 0 936.96 384a436.224 436.224 0 0 0-8.704-85.504 41.472 41.472 0 0 0-44.032-32.768 74.752 74.752 0 0 1-81.408-73.728 73.728 73.728 0 0 1 17.408-47.616 41.472 41.472 0 0 0 0-54.784A422.912 422.912 0 0 0 633.344-25.6a43.52 43.52 0 0 0-11.776 0z m-333.824 148.992a361.984 361.984 0 0 1 93.696-57.856 156.672 156.672 0 0 0 261.12 0 361.984 361.984 0 0 1 93.696 57.856 153.6 153.6 0 0 0-15.36 67.584 153.6 153.6 0 0 0 132.096 153.6 318.976 318.976 0 0 1 0 37.888 354.304 354.304 0 0 1-8.704 77.312 156.16 156.16 0 0 0-125.44 153.6 163.84 163.84 0 0 0 4.608 38.4 342.016 342.016 0 0 1-94.208 51.2 156.16 156.16 0 0 0-238.592 0 342.016 342.016 0 0 1-94.208-51.2 164.864 164.864 0 0 0 5.12-38.4 156.672 156.672 0 0 0-125.952-153.6A354.304 354.304 0 0 1 168.96 384a313.344 313.344 0 0 1 0-37.888 156.672 156.672 0 0 0 132.608-153.6 153.6 153.6 0 0 0-13.824-69.12zM512 207.872A175.104 175.104 0 1 0 687.616 384 175.104 175.104 0 0 0 512 207.872z m0 268.8A93.696 93.696 0 1 1 605.696 384 93.184 93.184 0 0 1 512 476.672z"  horiz-adv-x="1024" />

    
    <glyph glyph-name="voice_window_finish" unicode="&#59044;" d="M422.912 76.8a51.2 51.2 0 0 0-35.84 14.848L153.6 323.584a51.2 51.2 0 0 0 73.728 72.192l195.584-195.584 373.76 373.76a51.2 51.2 0 0 0 72.192 0 51.2 51.2 0 0 0 0-72.704l-409.6-409.6a51.2 51.2 0 0 0-36.352-14.848z"  horiz-adv-x="1024" />

    
    <glyph glyph-name="voice_window_cancel" unicode="&#59045;" d="M896 632.832h-768a40.96 40.96 0 0 1 0-81.92h80.384v-549.888a40.96 40.96 0 0 1 40.96-40.96h531.456a40.96 40.96 0 0 1 40.96 40.96V550.912h74.24a40.96 40.96 0 0 1 0 81.92z m-156.16-590.848H290.304V550.912h449.536zM393.728 726.016h236.544a40.96 40.96 0 1 1 0 81.92H393.728a40.96 40.96 0 1 1 0-81.92zM426.496 147.968a40.96 40.96 0 0 1 40.96 40.96V401.92a40.96 40.96 0 0 1-81.92 0v-212.992a40.96 40.96 0 0 1 40.96-40.96zM603.648 147.968a40.96 40.96 0 0 1 40.96 40.96V401.92a40.96 40.96 0 1 1-81.92 0v-212.992a40.96 40.96 0 0 1 40.96-40.96z"  horiz-adv-x="1024" />

    
    <glyph glyph-name="voice_window_send" unicode="&#59046;" d="M910.848 742.4a39.936 39.936 0 0 1 0 11.264v3.584a51.2 51.2 0 0 1-7.68 12.288 61.44 61.44 0 0 1-12.288 7.68h-3.584a39.936 39.936 0 0 1-11.264 0H870.4a51.2 51.2 0 0 1-12.288 0L37.888 494.08a40.448 40.448 0 0 1-27.648-36.864 41.472 41.472 0 0 1 24.064-38.912l354.304-157.696 157.696-353.792a40.96 40.96 0 0 1 37.376-24.576 41.472 41.472 0 0 1 37.376 27.648l286.208 819.2A51.2 51.2 0 0 1 911.36 742.4h-0.512zM716.8 644.608l-307.2-304.128-247.296 110.592z m-137.728-610.304L468.48 281.6l304.128 307.2z"  horiz-adv-x="1024" />

    
    <glyph glyph-name="voice_window_microphone" unicode="&#59047;" d="M512 256a157.12 157.12 0 0 1 157.12 160V608a157.12 157.12 0 1 1-314.24 0v-192A157.12 157.12 0 0 1 512 256zM774.4 384a32 32 0 0 1-37.76-24.64 224 224 0 0 0-13.44-42.88 224 224 0 0 0-49.28-72.96 203.2 203.2 0 0 0-33.92-28.16 244.8 244.8 0 0 0-39.04-21.44 232 232 0 0 0-135.04-13.12 221.44 221.44 0 0 0-42.88 13.12 244.8 244.8 0 0 0-39.04 23.04 203.2 203.2 0 0 0-33.92 28.16 224 224 0 0 0-49.28 72.96 202.24 202.24 0 0 0-12.8 42.88A32 32 0 0 1 249.6 384a32 32 0 0 1-25.6-36.16 288 288 0 0 1 17.28-55.04 277.44 277.44 0 0 1 27.2-49.6 272.64 272.64 0 0 1 35.84-43.52 309.44 309.44 0 0 1 43.2-35.84 302.08 302.08 0 0 1 49.92-27.2 296.32 296.32 0 0 1 55.04-16.96 247.36 247.36 0 0 1 26.88-4.16v-46.08h-66.88a32 32 0 0 1 0-64h199.04a32 32 0 0 1 0 64H544v46.08a247.36 247.36 0 0 1 26.88 4.16 296.32 296.32 0 0 1 55.04 16.96 302.08 302.08 0 0 1 49.92 27.2 332.16 332.16 0 0 1 43.52 35.84 288 288 0 0 1 35.52 43.52 277.44 277.44 0 0 1 27.2 49.6 281.6 281.6 0 0 1 17.92 55.04 32 32 0 0 1-25.6 36.16z"  horiz-adv-x="1024" />

    
    <glyph glyph-name="voice_window_sound" unicode="&#59048;" d="M224 406.72a32 32 0 0 1 0-45.44l67.84-67.84a128 128 0 0 1 0 181.12zM405.12 632.96a32 32 0 0 1 0-45.44 288 288 0 0 0 0-407.04 32 32 0 0 1 45.12-45.44 352 352 0 0 1 0 497.92 32 32 0 0 1-45.12 0zM608 791.36a32 32 0 0 1-45.12 0 32 32 0 0 1 0-45.44 512 512 0 0 0 0-723.84A32 32 0 0 1 608-23.36a576 576 0 0 1 0 814.72z"  horiz-adv-x="1024" />

    
    <glyph glyph-name="answering" unicode="&#59039;" d="M292.352 828.928A40.96 40.96 0 0 1 256 851.968a40.448 40.448 0 0 1-36.352-22.528L54.272 501.248a40.96 40.96 0 1 1 73.216-36.864L163.84 537.6h179.2l34.816-71.68a40.448 40.448 0 0 1 36.864-23.04 36.864 36.864 0 0 1 17.92 4.096 40.96 40.96 0 0 1 18.944 54.784zM204.8 618.496l51.2 99.84 48.64-99.84zM386.048 179.2a119.296 119.296 0 0 1 34.304 80.384 121.856 121.856 0 0 1-42.496 88.576 122.368 122.368 0 0 1-77.312 35.84H91.136v-427.008h225.28a133.12 133.12 0 0 1 79.36 35.328 120.32 120.32 0 0 1 45.568 89.088 120.32 120.32 0 0 1-45.568 89.6z m-224.256 134.144h138.752a58.368 58.368 0 0 0 29.184-16.896 61.44 61.44 0 0 0 19.968-36.864 51.2 51.2 0 0 0-28.672-53.76H161.792z m208.896-231.936a67.584 67.584 0 0 0-20.992-36.352 72.704 72.704 0 0 0-33.28-17.408h-153.6v107.52h168.448c6.144-2.56 45.568-29.184 39.424-53.76zM932.864 544.256h-281.6a40.96 40.96 0 0 1 0-81.92h281.6a40.96 40.96 0 1 1 0 81.92zM932.864 66.56h-281.6a40.96 40.96 0 1 1 0-81.92h281.6a40.96 40.96 0 0 1 0 81.92zM932.864 305.664h-281.6a40.96 40.96 0 0 1 0-81.92h281.6a40.96 40.96 0 0 1 0 81.92zM651.264 701.44h281.6a40.96 40.96 0 1 1 0 81.92h-281.6a40.96 40.96 0 1 1 0-81.92z"  horiz-adv-x="1024" />

    
    <glyph glyph-name="timing" unicode="&#59040;" d="M358.4 799.744h307.2a40.96 40.96 0 1 1 0 81.92H358.4a40.96 40.96 0 1 1 0-81.92zM828.928 550.912l75.264 75.264a40.96 40.96 0 0 1-57.856 57.856l-75.264-75.264a409.6 409.6 0 1 1 57.856-57.856zM512-35.84a327.68 327.68 0 1 0 327.68 327.68 328.192 328.192 0 0 0-327.68-327.68zM556.544 351.232V475.648a45.056 45.056 0 0 1-89.6 0v-124.416a90.112 90.112 0 1 1 89.6 0z"  horiz-adv-x="1024" />

    
    <glyph glyph-name="sign_in" unicode="&#59041;" d="M847.872 770.56h-67.072v-81.92h67.072a7.168 7.168 0 0 0 7.168-7.168v-671.744a7.168 7.168 0 0 0-7.168-7.168H176.128a7.168 7.168 0 0 0-7.168 7.168V681.472a7.168 7.168 0 0 0 7.168 7.168h68.608v81.92H176.128A89.088 89.088 0 0 1 87.04 681.472v-671.744a89.088 89.088 0 0 1 89.088-89.088h671.744a89.088 89.088 0 0 1 89.088 89.088V681.472a89.088 89.088 0 0 1-89.088 89.088zM445.44 770.56h139.264v-81.92H445.44zM348.16 378.88a40.96 40.96 0 0 1 0-57.856l118.784-118.784a39.936 39.936 0 0 1 29.184-11.776 38.912 38.912 0 0 1 28.672 11.776L711.68 389.12a40.96 40.96 0 0 1-57.856 57.856l-157.696-157.696-90.112 89.6a40.96 40.96 0 0 1-57.856 0zM344.064 611.84a40.96 40.96 0 0 1 40.96 40.96v153.6a40.96 40.96 0 1 1-81.92 0v-153.6a40.96 40.96 0 0 1 40.96-40.96zM679.936 611.84a40.96 40.96 0 0 1 40.96 40.96v153.6a40.96 40.96 0 0 1-81.92 0v-153.6a40.96 40.96 0 0 1 40.96-40.96z"  horiz-adv-x="1024" />

    
    <glyph glyph-name="media" unicode="&#59042;" d="M870.4 772.096H153.6a92.672 92.672 0 0 1-93.696-92.672v-590.848A93.184 93.184 0 0 1 153.6-4.096h716.8a93.184 93.184 0 0 1 92.672 92.672V679.424A92.672 92.672 0 0 1 870.4 772.096z m10.752-92.672v-148.48h-74.24V691.2H870.4a10.752 10.752 0 0 0 11.776-11.776zM211.968 312.832H141.824V442.368h70.144zM293.888 691.2h431.104v-614.4H293.888z m512-241.152h75.264v-130.048h-74.24zM153.6 691.2h58.368v-166.912H141.824v153.6A10.752 10.752 0 0 0 153.6 691.2z m-11.776-602.624V230.4h70.144v-153.6H153.6a10.752 10.752 0 0 0-11.776 11.776zM870.4 76.8h-63.488v160.256h75.264v-148.48A10.752 10.752 0 0 0 870.4 76.8zM657.408 419.328L444.416 541.184a41.472 41.472 0 0 1-40.96 0 40.448 40.448 0 0 1-20.48-35.328v-243.712a40.448 40.448 0 0 1 20.48-35.328 42.496 42.496 0 0 1 20.48-5.632 40.96 40.96 0 0 1 20.48 5.632l212.992 121.856a40.96 40.96 0 0 1 0 70.656zM464.896 332.8V435.2l89.6-51.2z"  horiz-adv-x="1024" />

    
    <glyph glyph-name="screensharing" unicode="&#59043;" d="M866.816 770.56H157.184A95.744 95.744 0 0 1 61.44 674.816v-479.232a95.744 95.744 0 0 1 95.744-95.744H471.04v-97.28H281.6a40.96 40.96 0 1 1 0-81.92h460.8a40.96 40.96 0 0 1 0 81.92h-189.44v97.28h313.856a95.744 95.744 0 0 1 95.744 95.744V674.816a95.744 95.744 0 0 1-95.744 95.744z m13.824-574.976a13.824 13.824 0 0 0-13.824-13.824H157.184a13.824 13.824 0 0 0-13.824 13.824V674.816a13.824 13.824 0 0 0 13.824 13.824h709.632a13.824 13.824 0 0 0 13.824-13.824zM696.32 475.136a39.936 39.936 0 0 1-8.704 11.264l-96.256 98.304a40.96 40.96 0 0 1-57.856 0 40.448 40.448 0 0 1 0-57.856l29.184-29.696C465.92 486.4 358.4 454.656 326.144 325.12a40.96 40.96 0 0 1 29.184-51.2h10.24a40.448 40.448 0 0 1 39.424 30.72c19.456 74.24 74.752 102.4 149.504 109.056l-20.992-21.504a40.448 40.448 0 0 1 0-57.856 40.96 40.96 0 0 1 28.672-11.776 42.496 42.496 0 0 1 29.184 11.776l96.256 96.256a39.936 39.936 0 0 1 8.704 13.312 41.472 41.472 0 0 1 0 31.232z"  horiz-adv-x="1024" />

    
    <glyph glyph-name="seating_area_left" unicode="&#59035;" d="M635.733333-119.466667a85.333333 85.333333 0 0 0-60.586666 24.746667l-418.133334 418.133333a85.333333 85.333333 0 0 0 0 121.173334l418.133334 418.133333a85.333333 85.333333 0 0 0 121.173333-121.173333L341.333333 384l358.4-357.546667a85.333333 85.333333 0 0 0 0-121.173333 85.333333 85.333333 0 0 0-64-24.746667z"  horiz-adv-x="1024" />

    
    <glyph glyph-name="seating_area_right" unicode="&#59036;" d="M388.266667-119.466667a85.333333 85.333333 0 0 0-60.586667 24.746667 85.333333 85.333333 0 0 0 0 121.173333L682.666667 384 327.68 741.546667A85.333333 85.333333 0 0 0 448.853333 862.72l418.133334-418.133333a85.333333 85.333333 0 0 0 0-121.173334l-418.133334-418.133333a85.333333 85.333333 0 0 0-60.586666-24.746667z"  horiz-adv-x="1024" />

    
    <glyph glyph-name="video_page_up" unicode="&#59037;" d="M896 192a64 64 0 0 0-45.44 18.56L512 549.76l-338.56-339.2a64 64 0 0 0-90.88 90.88l384 384a64 64 0 0 0 90.88 0l384-384a64 64 0 0 0 0-90.88A64 64 0 0 0 896 192z"  horiz-adv-x="1024" />

    
    <glyph glyph-name="video_page_down" unicode="&#59038;" d="M512 64a64 64 0 0 0-45.44 18.56l-384 384a64 64 0 0 0 90.88 90.88L512 218.24l338.56 339.2a64 64 0 1 0 90.88-90.88l-384-384A64 64 0 0 0 512 64z"  horiz-adv-x="1024" />

    
    <glyph glyph-name="member_setting_up" unicode="&#59028;" d="M463.36 529.92L284.16 320a64 64 0 0 1 48.64-105.6h358.4A64 64 0 0 1 739.84 320l-179.2 209.92a64 64 0 0 1-97.28 0z"  horiz-adv-x="1024" />

    
    <glyph glyph-name="mor_tools" unicode="&#59029;" d="M204.8 460.8A76.8 76.8 0 1 1 281.6 384 76.8 76.8 0 0 1 204.8 460.8z m307.2 0a76.8 76.8 0 1 1 76.8-76.8A76.8 76.8 0 0 1 512 460.8z m307.2 0a76.8 76.8 0 1 1 76.8-76.8A76.8 76.8 0 0 1 819.2 460.8z"  horiz-adv-x="1024" />

    
    <glyph glyph-name="rais_hands" unicode="&#59030;" d="M309.333333 293.973333V689.066667A51.2 51.2 0 0 0 341.333333 741.546667a48.64 48.64 0 0 0 66.986667-46.506667v-234.666667c0-12.373333 0-24.32 17.92-24.32s17.92 9.813333 17.92 24.32V753.92a51.626667 51.626667 0 0 0 36.266667 54.613333 48.213333 48.213333 0 0 0 62.72-38.4v-309.76c0-12.373333 0-26.453333 17.92-26.453333s15.786667 14.08 15.786666 26.453333v256a78.506667 78.506667 0 0 0 6.826667 32 49.066667 49.066667 0 0 0 49.493333 26.453334 50.773333 50.773333 0 0 0 42.666667-38.4 58.026667 58.026667 0 0 0 2.133333-20.053334v-283.733333c0-5.973333-2.133333-14.08 2.56-20.053333a21.76 21.76 0 0 1 15.36-12.373334c4.693333 0 11.52 8.106667 15.786667 14.08s0 10.24 0 16.213334V616.106667c0 38.4 20.48 62.72 49.493333 62.72S810.666667 654.506667 810.666667 616.106667v-415.146667a295.68 295.68 0 0 0-17.92-107.093333 201.813333 201.813333 0 0 0-134.826667-121.6 372.48 372.48 0 0 0-220.16 3.84 260.693333 260.693333 0 0 0-141.653333 105.386666c-49.493333 75.093333-101.12 149.76-152.746667 226.986667a72.533333 72.533333 0 0 0-15.36 30.293333 55.893333 55.893333 0 0 0 31.573333 64.853334 65.28 65.28 0 0 0 75.946667-19.626667c24.746667-30.293333 46.933333-60.586667 69.546667-93.013333z m0 0"  horiz-adv-x="1024" />

    
    <glyph glyph-name="label_hands" unicode="&#59031;" d="M346.88 296.32v384A51.2 51.2 0 1 0 448 687.36v-229.12c0-11.52 0-23.68 18.56-23.68s18.56 10.24 18.56 23.68V744.96a51.84 51.84 0 0 0 101.76 15.36v-302.08c0-11.52 0-25.6 18.56-25.6s16 14.08 16 25.6V709.12a79.36 79.36 0 0 0 7.04 31.36 52.48 52.48 0 0 0 95.36-11.52 64 64 0 0 0 0-19.84v-296.32a23.04 23.04 0 0 1 16-11.52c5.12 0 11.52 7.68 16.64 13.44s0 10.24 0 16V610.56c0 37.12 20.48 64 50.56 64s51.2-23.68 51.2-64v-405.12a266.24 266.24 0 0 0-18.56-104.32A203.52 203.52 0 0 0 704-17.28a403.84 403.84 0 0 0-227.2 3.84 270.08 270.08 0 0 0-145.92 102.4c-51.2 72.96-104.32 146.56-157.44 221.44a64 64 0 0 0-14.08 29.44 53.76 53.76 0 0 0 32 64A70.4 70.4 0 0 0 270.72 384c25.6-29.44 48.64-59.52 71.68-90.88z m0 0"  horiz-adv-x="1024" />

    
    <glyph glyph-name="click" unicode="&#59032;" d="M784.382774 380.41832l-300.03065 43.007807V609.28129a68.607691 68.607691 0 0 1-136.703384 0v-391.678237l-77.82365 77.82365a68.095694 68.095694 0 0 1-96.255567-96.255567l215.039032-215.55103a307.198618 307.198618 0 0 1 204.799079-111.615498h28.671871A246.782889 246.782889 0 0 1 870.398387 118.787497V281.602765a102.399539 102.399539 0 0 1-86.015613 98.815555zM208.385366 607.745297a40.959816 40.959816 0 0 1 40.959816 40.959816 163.839263 163.839263 0 1 0 327.678525 0 40.959816 40.959816 0 0 1 81.919632 0 245.758894 245.758894 0 1 1-491.517788 0 40.959816 40.959816 0 0 1 40.959815-40.959816z"  horiz-adv-x="1024" />

    
    <glyph glyph-name="member_setting_down" unicode="&#59033;" d="M560.64 238.08L739.84 448a64 64 0 0 1-48.64 105.6H332.8A64 64 0 0 1 284.16 448l179.2-208.64a64 64 0 0 1 97.28-1.28z"  horiz-adv-x="1024" />

    
    <glyph glyph-name="shape" unicode="&#59034;" d="M742.4 256m-230.4 0a230.4 230.4 0 1 1 460.8 0 230.4 230.4 0 1 1-460.8 0ZM742.4 563.2a214.528 214.528 0 0 0 25.6 0v102.4A76.8 76.8 0 0 1 691.2 742.4h-460.8A76.8 76.8 0 0 1 153.6 665.6v-409.6A76.8 76.8 0 0 1 230.4 179.2h215.04a292.352 292.352 0 0 0-10.24 76.8 307.2 307.2 0 0 0 307.2 307.2z"  horiz-adv-x="1024" />

    
    <glyph glyph-name="toptool-timing" unicode="&#59026;" d="M512-76.8A460.8 460.8 0 1 0 972.8 384 461.44 461.44 0 0 0 512-76.8z m0 832A371.2 371.2 0 1 1 883.2 384 371.2 371.2 0 0 1 512 755.2zM640 192a46.72 46.72 0 0 0-22.4 5.76L448 297.6a43.52 43.52 0 0 0-22.4 38.4v192a44.8 44.8 0 0 0 89.6 0v-165.76l148.48-86.4A44.8 44.8 0 0 0 640 192z"  horiz-adv-x="1024" />

    
    <glyph glyph-name="im_voice_stop" unicode="&#59024;" d="M296.96 752.64A91.52 91.52 0 0 1 204.8 660.48v-552.96a92.16 92.16 0 0 1 184.32 0V660.48a91.52 91.52 0 0 1-92.16 92.16z m430.08 0a91.52 91.52 0 0 1-92.16-92.16v-552.96a92.16 92.16 0 0 1 184.32 0V660.48a91.52 91.52 0 0 1-92.16 92.16z"  horiz-adv-x="1024" />

    
    <glyph glyph-name="im_voice_start" unicode="&#59025;" d="M881.28 472.96l-512 289.92a102.4 102.4 0 0 1-150.4-88.96v-579.84a102.4 102.4 0 0 1 152.96-88.96l512 289.92a102.4 102.4 0 0 1-2.56 177.92z"  horiz-adv-x="1024" />

    
    <glyph glyph-name="im_card_link" unicode="&#59023;" d="M303.36-55.466667a230.826667 230.826667 0 0 0-162.986667 394.24l111.786667 111.786667A34.133333 34.133333 0 1 0 298.666667 402.346667L188.586667 290.133333a161.706667 161.706667 0 0 1 0-229.546666 165.973333 165.973333 0 0 1 229.546666 0l139.093334 139.093333a161.706667 161.706667 0 0 1 0 229.546667 145.493333 145.493333 0 0 1-45.226667 32 34.133333 34.133333 0 0 0 29.44 61.866666A241.066667 241.066667 0 0 0 605.866667 477.866667a231.68 231.68 0 0 0 0-326.826667l-139.093334-139.093333a230.826667 230.826667 0 0 0-163.413333-67.413334zM498.346667 241.066667a30.293333 30.293333 0 0 0-14.506667 3.413333A224.426667 224.426667 0 0 0 418.133333 290.133333a231.68 231.68 0 0 0 0 326.826667l139.093334 139.093333a230.826667 230.826667 0 1 0 326.4-326.826666l-110.506667-110.506667A34.133333 34.133333 0 0 0 725.333333 366.933333l110.506667 110.933334a161.706667 161.706667 0 0 1 0 229.546666 165.973333 165.973333 0 0 1-229.546667 0l-139.52-139.093333a161.706667 161.706667 0 0 1 0-229.546667 150.613333 150.613333 0 0 1 46.08-32.426666 34.133333 34.133333 0 0 0-14.506666-65.28z"  horiz-adv-x="1024" />

    
    <glyph glyph-name="toolbar_start_record" unicode="&#59021;" d="M803.413333 576.853333a42.666667 42.666667 0 0 0 74.24-32.426666v-320.853334a42.666667 42.666667 0 0 0-26.453333-42.666666 42.666667 42.666667 0 0 0-47.36 7.68l-88.746667 81.066666a42.666667 42.666667 0 0 0-14.08 32.426667v163.413333a36.266667 36.266667 0 0 0 11.52 26.88l90.88 85.333334zM568.32 640H235.946667a93.013333 93.013333 0 0 1-89.6-96.426667v-319.146666A93.013333 93.013333 0 0 1 235.946667 128h332.373333a93.44 93.44 0 0 1 90.026667 96.426667V543.573333A93.44 93.44 0 0 1 568.32 640z m-252.16-388.693333V516.693333L537.173333 384z"  horiz-adv-x="1024" />

    
    <glyph glyph-name="toolbar_stop_record" unicode="&#59022;" d="M803.413333 576.853333a42.666667 42.666667 0 0 0 74.24-32.426666v-320.853334a42.666667 42.666667 0 0 0-26.453333-42.666666 42.666667 42.666667 0 0 0-47.36 7.68l-88.746667 81.066666a42.666667 42.666667 0 0 0-14.08 32.426667v163.413333a36.266667 36.266667 0 0 0 11.52 26.88l90.88 85.333334zM568.32 640H235.946667a93.013333 93.013333 0 0 1-89.6-96.426667v-319.146666A93.013333 93.013333 0 0 1 235.946667 128h332.373333a93.44 93.44 0 0 1 90.026667 96.426667V543.573333A93.44 93.44 0 0 1 568.32 640z m-208.64-371.2h-85.333333V499.2h85.333333z m170.666667 0h-85.333334V499.2h85.333334z"  horiz-adv-x="1024" />

    
    <glyph glyph-name="member_search_close" unicode="&#59020;" d="M694.857143 164.571429a34.377143 34.377143 0 0 0-25.6 10.971428l-365.714286 365.714286a35.84 35.84 0 0 0 51.2 51.2l365.714286-365.714286a35.108571 35.108571 0 0 0 0-51.2 34.377143 34.377143 0 0 0-25.6-10.971428zM329.142857 164.571429a34.377143 34.377143 0 0 0-25.6 10.971428 35.108571 35.108571 0 0 0 0 51.2l365.714286 365.714286a35.84 35.84 0 0 0 51.2-51.2l-365.714286-365.714286a34.377143 34.377143 0 0 0-25.6-10.971428z"  horiz-adv-x="1024" />

    
    <glyph glyph-name="member_search_empty" unicode="&#59018;" d="M883.484444 40.163556h-742.968888a63.260444 63.260444 0 0 0-63.146667 63.146666V664.689778a63.260444 63.260444 0 0 0 63.146667 63.146666h742.968888a63.260444 63.260444 0 0 0 63.146667-63.146666v-561.379556a63.260444 63.260444 0 0 0-63.146667-63.146666z m-742.968888 659.911111a35.84 35.84 0 0 1-35.84-35.384889v-561.379556a35.84 35.84 0 0 1 35.84-35.84h742.968888a35.84 35.84 0 0 1 35.84 35.84V664.689778a35.84 35.84 0 0 1-35.84 35.84zM303.331556 587.207111h-93.525334a13.653333 13.653333 0 0 0 0 27.306667h93.525334a13.653333 13.653333 0 0 0 0-27.306667zM512 351.800889a86.926222 86.926222 0 1 0 86.812444 86.926222A86.926222 86.926222 0 0 0 512 351.800889zM512 497.777778a59.505778 59.505778 0 1 1 59.505778-59.505778A59.619556 59.619556 0 0 1 512 497.777778zM375.466667 174.193778a13.653333 13.653333 0 0 0-13.653334 13.653333v40.391111a97.507556 97.507556 0 0 0 97.28 97.28H500.622222a13.653333 13.653333 0 0 0 0-27.306666h-41.073778a70.087111 70.087111 0 0 1-69.973333-69.973334v-40.391111a13.653333 13.653333 0 0 0-14.108444-13.653333zM619.064889 193.649778a70.314667 70.314667 0 1 0 49.948444 20.593778 70.314667 70.314667 0 0 0-49.948444-20.593778z m0 113.777778a43.235556 43.235556 0 0 1-30.606222-73.841778 44.487111 44.487111 0 0 1 61.212444 0 43.235556 43.235556 0 0 1-30.606222 73.841778zM694.044444 176.583111a13.653333 13.653333 0 0 0-9.671111 3.982222l-32.199111 32.199111a13.653333 13.653333 0 0 0 0 19.342223 13.880889 13.880889 0 0 0 19.342222 0l32.199112-32.199111a13.653333 13.653333 0 0 0 0-19.342223 13.880889 13.880889 0 0 0-9.671112-3.982222z"  horiz-adv-x="1024" />

    
    <glyph glyph-name="member_search" unicode="&#59019;" d="M469.12 27.52a389.76 389.76 0 1 0 275.84 113.92 391.04 391.04 0 0 0-275.84-113.92z m0 670.72a280.96 280.96 0 1 1 199.04-81.92 282.24 282.24 0 0 1-199.04 81.92zM896-64a54.4 54.4 0 0 0-39.04 16l-180.48 180.48a54.4 54.4 0 1 0 76.8 77.44l181.12-181.12A54.4 54.4 0 0 0 896-64z"  horiz-adv-x="1024" />

    
    <glyph glyph-name="member_onstage" unicode="&#59017;" d="M512 576a128 128 0 0 1 87.68 217.6A128 128 0 1 1 512 576zM844.8 320H179.2a51.2 51.2 0 0 1 0-102.4H256V64a128 128 0 0 1 128-128h256a128 128 0 0 1 128 128v151.68h76.8a51.2 51.2 0 0 1 0 102.4zM599.04 552.96h-179.2A166.4 166.4 0 0 1 256 384h512a166.4 166.4 0 0 1-168.96 168.96z"  horiz-adv-x="1024" />

    
    <glyph glyph-name="quit" unicode="&#59014;" d="M640 317.44a21.333333 21.333333 0 0 1-21.333333-21.333333v-59.306667a17.493333 17.493333 0 0 0-17.493334-17.493333H469.333333V552.533333a42.666667 42.666667 0 0 1-27.306666 39.68L304.64 645.973333h298.666667a17.92 17.92 0 0 0 17.493333-17.92V554.666667a21.333333 21.333333 0 0 1 21.333333-21.333334 21.333333 21.333333 0 0 1 21.333334 21.333334V628.053333a60.586667 60.586667 0 0 1-60.16 60.586667H213.333333a21.333333 21.333333 0 0 1-21.333333-21.333333v-475.733334a21.76 21.76 0 0 1 13.653333-20.053333l205.653334-78.933333a42.666667 42.666667 0 0 1 58.026666 39.253333v44.8h131.84a60.16 60.16 0 0 1 60.16 60.16v59.306667a21.76 21.76 0 0 1-21.333333 21.333333zM830.293333 432.64l-119.466666 119.893333a619.52 619.52 0 0 1 0-81.066666H512v-85.333334h195.84v-73.813333z"  horiz-adv-x="1024" />

    
    <glyph glyph-name="clean1" unicode="&#59013;" d="M870.4 640H153.6v-92.16h72.192v-512a57.856 57.856 0 0 1 56.32-61.44h460.8a57.856 57.856 0 0 1 56.32 59.904v512H870.4zM464.896 128H369.152V431.104h95.744z m190.976 0H563.2V431.104h95.232zM358.4 795.648h307.2v-92.16H358.4z"  horiz-adv-x="1024" />

    
    <glyph glyph-name="sort-reverse" unicode="&#58997;" d="M811.52 128h-597.333333L512 640z"  horiz-adv-x="1024" />

    
    <glyph glyph-name="detect-mic" unicode="&#59006;" d="M512 201.142857a177.371429 177.371429 0 0 1 177.371429 177.371429V640a177.371429 177.371429 0 1 1-354.742858 0v-263.68A177.371429 177.371429 0 0 1 512 201.142857zM400.091429 640A111.542857 111.542857 0 1 0 621.714286 640v-263.68a109.714286 109.714286 0 1 0-223.085715 0zM777.874286 328.777143a32.914286 32.914286 0 0 1-41.325715-21.577143 235.52 235.52 0 0 0-449.097142 0 32.914286 32.914286 0 0 1-62.902858-20.114286 299.885714 299.885714 0 0 1 256-206.994285v-53.76h-47.908571a32.914286 32.914286 0 0 1 0-65.828572h158.354286a32.914286 32.914286 0 1 1 0 65.828572h-46.445715v51.931428a304.64 304.64 0 0 1 256 209.188572 32.914286 32.914286 0 0 1-22.674285 41.325714z"  horiz-adv-x="1024" />

    
    <glyph glyph-name="sort-order" unicode="&#59007;" d="M512 128L212.48 640h597.333333z"  horiz-adv-x="1024" />

    
    <glyph glyph-name="detect-camera" unicode="&#59008;" d="M512 693.76m-38.765714 0a38.765714 38.765714 0 1 1 77.531428 0 38.765714 38.765714 0 1 1-77.531428 0ZM680.594286 442.148571A168.594286 168.594286 0 1 1 512 274.285714a168.594286 168.594286 0 0 1 168.594286 167.862857z m-271.36 0A102.765714 102.765714 0 1 0 512 339.382857a102.4 102.4 0 0 0-102.765714 102.765714zM744.228571-9.142857h-58.514285l-46.08 151.405714a362.057143 362.057143 0 1 1-256 0l-45.348572-151.405714h-58.514285a32.914286 32.914286 0 1 1 0-65.828572h464.457142a32.914286 32.914286 0 0 1 0 65.828572zM215.771429 480.914286a296.228571 296.228571 0 1 0 296.228571-296.228572 296.594286 296.594286 0 0 0-296.228571 296.228572z m232.228571-356.205715a352.914286 352.914286 0 0 1 128 0l40.96-133.851428h-209.92z"  horiz-adv-x="1024" />

    
    <glyph glyph-name="detect-result" unicode="&#59009;" d="M755.931429 687.177143h-51.565715a69.851429 69.851429 0 0 1-69.485714 69.485714h-245.76a69.851429 69.851429 0 0 1-69.485714-69.485714H268.068571A82.651429 82.651429 0 0 1 186.514286 603.428571v-509.805714a83.017143 83.017143 0 0 1 81.554285-84.114286h487.862858a83.017143 83.017143 0 0 1 81.554285 84.114286V603.428571a82.651429 82.651429 0 0 1-81.554285 83.748572z m-370.468572 0a3.657143 3.657143 0 0 0 3.657143 3.657143h245.76a3.657143 3.657143 0 0 0 3.657143-3.657143V629.028571a3.291429 3.291429 0 0 0-3.657143-3.657142h-245.76a3.291429 3.291429 0 0 0-3.657143 3.657142zM771.657143 93.622857a17.188571 17.188571 0 0 0-15.725714-18.285714H268.068571a17.188571 17.188571 0 0 0-15.725714 18.285714V603.428571a16.822857 16.822857 0 0 0 15.725714 17.92h52.297143a69.12 69.12 0 0 1 68.754286-61.805714h245.76a69.12 69.12 0 0 1 68.754286 61.805714h52.297143a16.822857 16.822857 0 0 0 15.725714-17.92zM621.714286 430.445714l-146.285715-146.285714-73.142857 71.314286a33.28 33.28 0 1 1-46.811428-46.811429l94.354285-93.988571a32.548571 32.548571 0 0 1 23.04-9.508572 34.011429 34.011429 0 0 1 23.405715 9.508572L667.062857 384A32.914286 32.914286 0 1 1 621.714286 430.445714z"  horiz-adv-x="1024" />

    
    <glyph glyph-name="delete" unicode="&#59010;" d="M572.586667 384l182.613333 183.466667a41.813333 41.813333 0 0 1-59.733333 59.733333L512 444.586667 328.533333 627.2a41.813333 41.813333 0 0 1-59.733333-59.733333L451.413333 384 268.8 200.533333a40.96 40.96 0 0 1 0-59.733333 40.96 40.96 0 0 1 59.733333 0L512 323.413333l183.466667-182.613333a40.96 40.96 0 0 1 59.733333 0 40.96 40.96 0 0 1 0 59.733333z"  horiz-adv-x="1024" />

    
    <glyph glyph-name="sendfailure" unicode="&#59011;" d="M512 742.4a85.333333 85.333333 0 0 1-85.333333-85.333333v-290.133334a85.333333 85.333333 0 0 1 170.666666 0V657.066667a85.333333 85.333333 0 0 1-85.333333 85.333333zM559.786667 180.906667a69.12 69.12 0 0 1-15.36 8.533333H529.066667a85.333333 85.333333 0 0 1-49.493334 0 90.453333 90.453333 0 0 1-28.16-18.773333 72.533333 72.533333 0 0 1-17.92-28.16 85.333333 85.333333 0 0 1 139.093334-92.16 85.333333 85.333333 0 0 1 18.773333 28.16 80.213333 80.213333 0 0 1 5.973333 31.573333 89.6 89.6 0 0 1-24.746666 60.586667 134.826667 134.826667 0 0 1-12.8 10.24z"  horiz-adv-x="1024" />

    
    <glyph glyph-name="detect-speaker" unicode="&#59012;" d="M532.845714 724.48a53.028571 53.028571 0 0 1-57.417143-4.754286L309.76 583.68H219.428571a70.582857 70.582857 0 0 1-69.485714-70.217143v-258.925714A70.582857 70.582857 0 0 1 219.428571 184.32h90.331429l168.96-137.142857a52.297143 52.297143 0 0 1 54.125714-3.657143 51.565714 51.565714 0 0 1 27.794286 45.714286V678.765714a51.2 51.2 0 0 1-27.794286 45.714286z m-36.571428-605.622857l-163.108572 131.291428H219.428571a4.754286 4.754286 0 0 0-5.12 4.388572v258.925714a4.754286 4.754286 0 0 0 5.12 4.388572h113.737143l161.645715 131.657142zM731.428571 664.137143a32.914286 32.914286 0 1 1-38.765714-53.028572 280.137143 280.137143 0 0 0 0-453.485714 32.914286 32.914286 0 0 1 19.382857-59.611428 36.571429 36.571429 0 0 1 19.382857 6.217142 345.965714 345.965714 0 0 1 0 559.908572zM648.411429 550.4a32.914286 32.914286 0 0 1-38.765715-53.394286 138.971429 138.971429 0 0 0 0-225.28 32.914286 32.914286 0 0 1 19.382857-59.611428 31.451429 31.451429 0 0 1 19.382858 6.217143 205.165714 205.165714 0 0 1 0 332.068571z"  horiz-adv-x="1024" />

    
    <glyph glyph-name="network-abnormal" unicode="&#59005;" d="M457.728 223.232a76.8 76.8 0 0 1 95.232-119.296 246.272 246.272 0 0 0-51.2 140.8 73.216 73.216 0 0 1-44.032-21.504zM287.232 393.728A51.2 51.2 0 1 1 358.4 321.536 216.576 216.576 0 0 0 536.576 384a242.688 242.688 0 0 0 80.384 85.504 316.928 316.928 0 0 1-329.728-75.776zM819.2 503.296a228.352 228.352 0 0 0 63.488-25.088 51.2 51.2 0 0 1 22.528 12.8 51.2 51.2 0 0 1 0 72.704 559.104 559.104 0 0 1-789.504 0 51.2 51.2 0 0 1 74.24-72.704A455.68 455.68 0 0 0 819.2 503.296zM798.208 413.696a163.328 163.328 0 1 1 118.272-198.144 163.328 163.328 0 0 1-118.272 198.144z m34.304-189.952a30.208 30.208 0 0 0 0-42.496 30.72 30.72 0 0 0-42.496 0l-31.744 31.744-31.744-31.744a30.208 30.208 0 1 0-42.496 42.496l31.744 31.744-31.744 31.744a30.208 30.208 0 0 0 42.496 42.496l31.744-31.744 31.744 31.744a30.72 30.72 0 0 0 42.496 0 30.208 30.208 0 0 0 0-42.496l-31.744-31.744z"  horiz-adv-x="1024" />

    
    <glyph glyph-name="paint" unicode="&#59004;" d="M825.6 697.4464a153.6 153.6 0 0 0 0-217.2416l-36.1984-36.1984-217.2416 217.2416 36.2496 36.1984a153.6 153.6 0 0 0 217.1904 0zM365.056 51.2L189.44 25.6a31.232 31.232 0 0 0-35.84 35.328l25.088 175.616a117.248 117.248 0 0 0 31.744 64l335.872 335.36 217.088-217.088-335.36-335.872a114.176 114.176 0 0 0-62.976-31.744z"  horiz-adv-x="1024" />

    
    <glyph glyph-name="arrow-down" unicode="&#58958;" d="M512 128a85.333333 85.333333 0 0 0-60.586667 24.746667l-341.333333 341.333333a85.333333 85.333333 0 0 0 121.173333 121.173333L512 333.653333l280.746667 281.6a85.333333 85.333333 0 1 0 121.173333-121.173333l-341.333333-341.333333A85.333333 85.333333 0 0 0 512 128z"  horiz-adv-x="1024" />

    
    <glyph glyph-name="arrow-up" unicode="&#59003;" d="M853.333333 128a85.333333 85.333333 0 0 0-60.586666 24.746667L512 434.346667l-280.746667-281.6a85.333333 85.333333 0 0 0-121.173333 121.173333l341.333333 341.333333a85.333333 85.333333 0 0 0 121.173334 0l341.333333-341.333333a85.333333 85.333333 0 0 0 0-121.173333A85.333333 85.333333 0 0 0 853.333333 128z"  horiz-adv-x="1024" />

    
    <glyph glyph-name="speaker-off" unicode="&#58935;" d="M528.64 682.666667a42.666667 42.666667 0 0 1-46.933333-5.12L341.333333 559.36H266.666667a60.16 60.16 0 0 1-59.733334-60.586667v-229.546666a60.16 60.16 0 0 1 59.733334-60.586667H341.333333L483.413333 85.333333a42.666667 42.666667 0 0 1 71.253334 37.973334V644.693333a42.666667 42.666667 0 0 1-26.026667 37.973334z m-31.146667-536.32l-136.106666 117.76H266.666667a5.12 5.12 0 0 0-4.266667 5.12V498.773333a5.12 5.12 0 0 0 4.266667 5.12h94.72l136.106666 116.053334zM744.106667 384L810.666667 448.853333a27.733333 27.733333 0 1 1-42.666667 39.253334l-64.853333-64.853334L640 488.106667a27.733333 27.733333 0 1 1-39.253333-39.253334L665.6 384l-64.853333-64.853333a28.16 28.16 0 0 1 0-39.253334 27.733333 27.733333 0 0 1 39.253333 0l64.853333 64.853334L768 279.893333a27.733333 27.733333 0 0 1 39.253333 0 28.16 28.16 0 0 1 0 39.253334z"  horiz-adv-x="1024" />

    
    <glyph glyph-name="soundwaves-off" unicode="&#58937;" d="M512 163.84a154.453333 154.453333 0 0 1 19.626667 0l-247.466667 247.466667v-18.773334A228.693333 228.693333 0 0 1 512 163.84zM738.986667 392.533333V663.893333A228.693333 228.693333 0 0 1 512 891.733333a225.28 225.28 0 0 1-196.266667-112.64L735.573333 358.4a220.16 220.16 0 0 1 3.413334 34.133333zM833.706667 349.866667a52.906667 52.906667 0 0 1-65.706667-25.6l85.333333-85.333334a280.746667 280.746667 0 0 1 16.213334 40.106667 54.613333 54.613333 0 0 1-35.84 70.826667zM605.866667-12.8h-39.253334v33.28a363.52 363.52 0 0 1 85.333334 24.746667l-85.333334 85.333333A262.826667 262.826667 0 0 0 512 128a265.386667 265.386667 0 0 0-256 183.466667 55.466667 55.466667 0 0 1-105.813333-34.133334 375.466667 375.466667 0 0 1 302.933333-256v-33.28h-36.693333a55.466667 55.466667 0 1 1 0-110.933333H605.866667a55.466667 55.466667 0 1 1 0 110.933333zM256 719.36a52.906667 52.906667 0 0 1-74.24 0 52.053333 52.053333 0 0 1 0-74.24l597.333333-597.333333a45.226667 45.226667 0 0 1 36.693334-13.653334 54.613333 54.613333 0 0 1 37.546666 17.066667 52.053333 52.053333 0 0 1 0 74.24z"  horiz-adv-x="1024" />

    
    <glyph glyph-name="speaker-on" unicode="&#58938;" d="M528.64 682.666667a42.666667 42.666667 0 0 1-46.933333-5.12L341.333333 559.36H266.666667a60.16 60.16 0 0 1-59.733334-60.586667v-229.546666a60.16 60.16 0 0 1 59.733334-60.586667H341.333333L483.413333 85.333333a42.666667 42.666667 0 0 1 71.253334 37.973334V644.693333a42.666667 42.666667 0 0 1-26.026667 37.973334z m-31.146667-536.32l-136.106666 117.76H266.666667a5.12 5.12 0 0 0-4.266667 5.12V498.773333a5.12 5.12 0 0 0 4.266667 5.12h94.72l136.106666 116.053334zM697.173333 630.186667a27.306667 27.306667 0 0 1-38.826666-5.12 27.733333 27.733333 0 0 1 5.12-38.826667 256 256 0 0 0 0-404.053333 27.733333 27.733333 0 0 1-5.546667-38.826667 28.16 28.16 0 0 1 22.186667-11.093333 28.586667 28.586667 0 0 1 17.066666 5.973333 312.32 312.32 0 0 1 0 491.946667zM627.626667 529.493333a27.733333 27.733333 0 1 1-33.706667-42.666666 128 128 0 0 0 0-202.666667 27.733333 27.733333 0 0 1-5.12-38.826667 27.306667 27.306667 0 0 1 22.186667-10.666666 27.733333 27.733333 0 0 1 16.64 5.546666 184.746667 184.746667 0 0 1 0 290.56z"  horiz-adv-x="1024" />

    
    <glyph glyph-name="toptool-invite" unicode="&#58939;" d="M688.213333 298.666667h-3.413333l-117.76-98.986667a31.146667 31.146667 0 0 0-15.786667-6.826667h-2.986666a28.586667 28.586667 0 0 0-29.013334 27.733334v93.866666A581.973333 581.973333 0 0 1 213.333333 213.333333a325.973333 325.973333 0 0 0 305.92 311.466667v85.333333a27.306667 27.306667 0 0 0 17.066667 25.173334 29.013333 29.013333 0 0 0 30.72-4.266667l233.813333-196.266667a27.306667 27.306667 0 0 0 0-42.666666L688.213333 298.666667z m0 0"  horiz-adv-x="1024" />

    
    <glyph glyph-name="text" unicode="&#58940;" d="M204.8 742.4L153.6 640h307.2L307.2 25.6h204.8l102.4 614.4h256V742.4H204.8z"  horiz-adv-x="1024" />

    
    <glyph glyph-name="support" unicode="&#58941;" d="M512 819.2A435.2 435.2 0 1 1 947.2 384 435.84 435.84 0 0 1 512 819.2z m0-768A332.8 332.8 0 1 0 844.8 384 332.8 332.8 0 0 0 512 51.2zM512 412.16a51.2 51.2 0 0 1-51.2-51.2v-153.6a51.2 51.2 0 0 1 102.4 0v153.6a51.2 51.2 0 0 1-51.2 51.2zM512 589.44a57.6 57.6 0 1 1 57.6-57.6 57.6 57.6 0 0 1-57.6 57.6z"  horiz-adv-x="1024" />

    
    <glyph glyph-name="toptool-setting" unicode="&#58942;" d="M512 258.56a110.08 110.08 0 1 0 107.52 110.08A108.8 108.8 0 0 0 512 258.56z m228.266667 79.36a222.293333 222.293333 0 0 1 0 61.44l64.853333 52.053333A16.213333 16.213333 0 0 1 810.666667 469.333333l-63.573334 110.506667a15.36 15.36 0 0 1-18.773333 7.253333L651.946667 554.666667a226.133333 226.133333 0 0 1-51.626667 30.72l-11.946667 83.2a14.933333 14.933333 0 0 1-14.933333 14.08h-122.88a14.933333 14.933333 0 0 1-14.933333-13.226667l-11.52-85.333333A220.16 220.16 0 0 1 372.053333 554.666667l-76.373333 32a14.506667 14.506667 0 0 1-18.773333-6.826667L215.466667 469.333333a15.786667 15.786667 0 0 1 3.84-20.053333l64.426666-52.053333a247.893333 247.893333 0 0 1-2.133333-30.72 242.346667 242.346667 0 0 1 2.133333-30.72L219.306667 285.866667a15.786667 15.786667 0 0 1-3.84-20.053334l61.44-108.373333a15.36 15.36 0 0 1 18.773333-7.253333l76.373333 31.573333a220.16 220.16 0 0 1 52.053334-30.72l11.52-83.2a14.933333 14.933333 0 0 1 14.933333-13.226667h122.88a14.933333 14.933333 0 0 1 14.933333 13.226667l11.946667 83.2a217.6 217.6 0 0 1 51.626667 30.72l76.373333-31.573333a14.933333 14.933333 0 0 1 18.773333 7.253333L810.666667 265.813333a15.786667 15.786667 0 0 1-3.84 20.053334l-64.426667 52.053333z m0 0"  horiz-adv-x="1024" />

    
    <glyph glyph-name="unfold" unicode="&#58943;" d="M245.76 384a38.912 38.912 0 0 1 27.136 10.24l241.664 212.992 236.544-208.896a40.96 40.96 0 1 1 54.272 61.44L563.2 672.256a78.336 78.336 0 0 1-102.4 0L218.624 456.192A40.96 40.96 0 0 1 245.76 384zM563.2 365.056a78.336 78.336 0 0 1-102.4 0l-242.176-216.064A40.96 40.96 0 0 1 245.76 76.8a38.912 38.912 0 0 1 27.136 10.24l241.664 212.992 236.544-208.896a40.96 40.96 0 1 1 54.272 61.44z"  horiz-adv-x="1024" />

    
    <glyph glyph-name="upload" unicode="&#58944;" d="M797.44 327.68v-229.76H226.56V327.68H131.84v-325.12h760.96V327.68h-95.36zM460.8 616.96v-413.44h102.4v416L725.12 448l64 64-208.64 222.72a96.64 96.64 0 0 1-136.96 0L232.32 512l64-64z"  horiz-adv-x="1024" />

    
    <glyph glyph-name="toptool-whiteboard" unicode="&#58945;" d="M853.333333 170.666667H170.666667a42.666667 42.666667 0 0 1 0-85.333334h682.666666a42.666667 42.666667 0 0 1 0 85.333334zM810.666667 640a42.666667 42.666667 0 0 1-42.666667 42.666667H256a42.666667 42.666667 0 0 1-42.666667-42.666667v-384h597.333334z m-158.72-256h-3.413334a34.133333 34.133333 0 0 0-34.133333 30.72 70.4 70.4 0 0 1-38.4 61.013333 57.173333 57.173333 0 0 1-56.746667-17.066666 106.666667 106.666667 0 0 0-101.973333-32A128 128 0 0 0 341.333333 512a34.133333 34.133333 0 0 0 65.706667 19.626667c3.413333-11.946667 15.36-34.986667 28.16-38.4s21.76 3.84 37.546667 17.92a122.026667 122.026667 0 0 0 128 29.44A139.946667 139.946667 0 0 0 682.666667 421.546667a34.56 34.56 0 0 0-30.72-37.546667z"  horiz-adv-x="1024" />

    
    <glyph glyph-name="upload-refresh" unicode="&#58946;" d="M938.666667 427.52V778.24L824.32 663.893333A439.466667 439.466667 0 0 1 682.666667 759.466667a433.493333 433.493333 0 0 1-336.213334 0A443.733333 443.733333 0 0 1 119.466667 529.92a438.613333 438.613333 0 0 1-34.133334-170.666667 431.786667 431.786667 0 0 1 34.133334-170.666666 439.466667 439.466667 0 0 1 93.013333-132.266667 426.666667 426.666667 0 0 1 304.64-126.293333 419.84 419.84 0 0 1 170.666667 34.133333 426.666667 426.666667 0 0 1 229.546666 229.546667 59.733333 59.733333 0 1 1-110.08 46.08 320.853333 320.853333 0 0 0-66.56-98.986667 301.226667 301.226667 0 0 0-99.84-66.56 314.026667 314.026667 0 0 0-242.346666 0 289.28 289.28 0 0 0-98.986667 66.56 323.413333 323.413333 0 0 0-67.413333 98.986667 311.466667 311.466667 0 0 0 0 243.2 320.853333 320.853333 0 0 0 163.84 166.4 314.026667 314.026667 0 0 0 242.346666 0 317.44 317.44 0 0 0 99.84-67.413334L587.946667 427.52z"  horiz-adv-x="1024" />

    
    <glyph glyph-name="volume-off" unicode="&#58947;" d="M478.08 877.44a69.76 69.76 0 0 1-76.8-15.36l-175.36-192H105.6A99.2 99.2 0 0 1 12.8 568.96v-369.92a99.2 99.2 0 0 1 92.8-104.32h120.32l178.56-192a67.2 67.2 0 0 1 73.6-12.8 76.8 76.8 0 0 1 44.8 72.32V805.12a77.44 77.44 0 0 1-44.8 72.32z m-57.6-841.6l-150.4 161.28H115.2V568.96h153.6l151.68 163.2zM896 384l99.2 96.64a51.2 51.2 0 0 1-71.68 72.96l-99.84-97.92-100.48 97.92a51.2 51.2 0 1 1-71.68-72.96L750.08 384l-98.56-96.64a50.56 50.56 0 0 1 0-72.32 51.2 51.2 0 0 1 72.32 0l100.48 97.92 100.48-97.92a51.2 51.2 0 0 1 72.32 0 50.56 50.56 0 0 1 0 72.32z"  horiz-adv-x="1024" />

    
    <glyph glyph-name="translation" unicode="&#58949;" d="M354.56 653.44h61.44v-112.64h-61.44zM224 653.44h61.44v-112.64H224zM640 320V832a64 64 0 0 1-64 64H64a64 64 0 0 1-64-64v-512a64 64 0 0 1 64-64h512a64 64 0 0 1 64 64zM478.72 497.28H354.56v-97.28H285.44V497.28H161.28V696.96h124.16v55.04h69.12v-55.04h124.16zM832 704a146.56 146.56 0 0 0 42.88-103.68h72.96a218.88 218.88 0 0 1-219.52 218.88v-69.76A146.56 146.56 0 0 0 832 704zM192 64a146.56 146.56 0 0 0-42.88 103.68H73.6a218.88 218.88 0 0 1 219.52-218.88v69.76A146.56 146.56 0 0 0 192 64zM702.72 284.16l-43.52-130.56h89.6l-46.08 130.56zM960 512h-256v-165.12h42.24l115.2-310.4h-71.68l-25.6 73.6h-120.32l-25.6-73.6H546.56l58.88 159.36A148.48 148.48 0 0 0 576 192H384v-256a64 64 0 0 1 64-64h512a64 64 0 0 1 64 64V448a64 64 0 0 1-64 64z"  horiz-adv-x="1024" />

    
    <glyph glyph-name="videoscreen-play" unicode="&#58950;" d="M903.68 450.133333L341.333333 838.826667a81.493333 81.493333 0 0 1-128-66.133334v-777.386666a81.493333 81.493333 0 0 1 128-66.133334l562.346667 388.693334a80.213333 80.213333 0 0 1 0 132.266666z"  horiz-adv-x="1024" />

    
    <glyph glyph-name="colour-hook" unicode="&#58951;" d="M460.8 204.8a51.2 51.2 0 0 0-36.352 14.848l-153.6 153.6a51.2 51.2 0 0 0 72.704 72.704L460.8 328.192l219.648 220.16a51.2 51.2 0 1 0 72.704-72.704l-256-256a51.2 51.2 0 0 0-36.352-14.848z"  horiz-adv-x="1024" />

    
    <glyph glyph-name="bold" unicode="&#58952;" d="M761.173333 329.386667a226.133333 226.133333 0 0 1-69.973333 80.213333 248.32 248.32 0 0 1 31.573333 59.733333 214.186667 214.186667 0 0 1 11.093334 69.973334 229.546667 229.546667 0 0 1-17.066667 85.333333 213.333333 213.333333 0 0 1-46.933333 71.68A220.16 220.16 0 0 1 597.333333 750.933333a216.746667 216.746667 0 0 1-85.333333 17.066667H305.493333a69.12 69.12 0 0 1-68.266666-69.973333v-628.053334a69.12 69.12 0 0 1 68.266666-69.973333h263.68a216.746667 216.746667 0 0 1 85.333334 17.066667 234.666667 234.666667 0 0 1 69.973333 48.64A242.346667 242.346667 0 0 1 768 137.386667a222.72 222.72 0 0 1 16.213333 85.333333 219.306667 219.306667 0 0 1-23.04 106.666667zM372.053333 640h144.213334a85.333333 85.333333 0 0 0 35.84-7.68 98.986667 98.986667 0 0 0 29.013333-20.48A85.333333 85.333333 0 0 0 597.333333 580.266667a85.333333 85.333333 0 0 0 7.68-35.84 92.16 92.16 0 0 0-7.68-37.546667 85.333333 85.333333 0 0 0-19.626666-29.866667 98.986667 98.986667 0 0 0-29.013334-20.48 85.333333 85.333333 0 0 0-35.84-6.826666H372.053333z m282.453334-452.266667a103.253333 103.253333 0 0 0-20.48-29.866666 85.333333 85.333333 0 0 0-29.013334-20.48 85.333333 85.333333 0 0 0-35.84-9.386667H372.053333V320h197.12a85.333333 85.333333 0 0 0 35.84-7.68 85.333333 85.333333 0 0 0 29.013334-20.48 96.426667 96.426667 0 0 0 20.48-30.72 102.4 102.4 0 0 0 6.826666-35.84 108.373333 108.373333 0 0 0-6.826666-37.546667z"  horiz-adv-x="1024" />

    
    <glyph glyph-name="volume-on" unicode="&#58953;" d="M478.08 877.44a69.12 69.12 0 0 1-76.8-15.36l-175.36-192H104.96A99.2 99.2 0 0 1 12.8 568.96v-369.92a99.2 99.2 0 0 1 92.16-104.32h120.96l177.92-192a69.76 69.76 0 0 1 44.16-17.92 68.48 68.48 0 0 1 27.52 5.76 78.72 78.72 0 0 1 44.8 72.32V805.12A78.72 78.72 0 0 1 478.08 877.44z m-57.6-841.6l-150.4 161.28H115.2V568.96h153.6l151.68 163.2zM791.68 272a332.8 332.8 0 0 1 16.64 54.4 262.4 262.4 0 0 1 0 115.2 332.8 332.8 0 0 1-16.64 54.4 279.68 279.68 0 0 1-27.52 48.64 250.24 250.24 0 0 1-35.84 42.24 281.6 281.6 0 0 1-42.88 34.56 50.56 50.56 0 0 1-71.04-14.08 51.2 51.2 0 0 1 14.72-71.04 158.72 158.72 0 0 0 28.16-23.04 188.16 188.16 0 0 0 23.04-26.88 245.76 245.76 0 0 0 17.28-31.36 209.28 209.28 0 0 0 10.88-33.92 181.12 181.12 0 0 0 0-74.24 209.28 209.28 0 0 0-10.88-33.92 245.76 245.76 0 0 0-17.28-31.36 238.72 238.72 0 0 0-23.04-27.52 188.16 188.16 0 0 0-28.16-22.4 51.2 51.2 0 0 1-14.72-71.04 52.48 52.48 0 0 1 42.88-23.04 50.56 50.56 0 0 1 28.16 8.96 281.6 281.6 0 0 1 42.88 34.56 250.24 250.24 0 0 1 35.84 42.24 279.68 279.68 0 0 1 27.52 48.64zM1001.6 474.88a410.24 410.24 0 0 1-26.88 85.12 448 448 0 0 1-42.24 76.8 508.16 508.16 0 0 1-56.32 64 469.12 469.12 0 0 1-68.48 55.04 51.2 51.2 0 0 1-56.32-85.76 338.56 338.56 0 0 0 53.12-42.88 334.72 334.72 0 0 0 43.52-51.2 380.16 380.16 0 0 0 32.64-58.88 359.04 359.04 0 0 0 21.12-64A358.4 358.4 0 0 0 908.8 384a369.92 369.92 0 0 0-7.04-70.4 346.88 346.88 0 0 0-21.12-64 359.04 359.04 0 0 0-32.64-59.52 334.72 334.72 0 0 0-43.52-51.2 338.56 338.56 0 0 0-53.12-42.88 51.84 51.84 0 0 1-14.72-71.04 52.48 52.48 0 0 1 42.88-23.04 49.92 49.92 0 0 1 28.16 8.32 469.12 469.12 0 0 1 68.48 53.76 508.16 508.16 0 0 1 56.32 64 448 448 0 0 1 42.24 76.8 410.24 410.24 0 0 1 26.88 85.12 435.2 435.2 0 0 1 0 181.76z"  horiz-adv-x="1024" />

    
    <glyph glyph-name="camera-off" unicode="&#58954;" d="M673.28 140.8h-35.84l-32.426667 90.88 19.2 8.106667-42.666666 42.666666a197.546667 197.546667 0 0 0-69.546667-13.653333 199.253333 199.253333 0 0 0-187.306667 270.506667l-42.666666 42.666666A252.586667 252.586667 0 0 1 256 469.333333a256 256 0 0 1 162.986667-238.08l-32.426667-90.453333h-35.84a27.733333 27.733333 0 0 1 0-55.466667h322.56a27.733333 27.733333 0 0 1 0 55.466667z m-227.84 0l27.306667 75.946667A298.666667 298.666667 0 0 1 512 213.333333a239.786667 239.786667 0 0 1 39.253333 3.84l27.306667-76.373333zM303.36 717.226667a27.733333 27.733333 0 1 1-39.253333-38.826667l456.533333-456.96a27.733333 27.733333 0 0 1 39.253333 0 28.16 28.16 0 0 1 0 39.253333zM512 669.866667a198.826667 198.826667 0 0 0 187.306667-270.08l42.666666-42.666667A251.733333 251.733333 0 0 1 768 469.333333a256 256 0 0 1-368.213333 229.973334l42.666666-42.666667A197.546667 197.546667 0 0 0 512 669.866667zM512 645.12a27.733333 27.733333 0 0 1-27.733333-27.733333v-2.986667l24.32-24.32H512a27.733333 27.733333 0 0 1 0 55.466667zM539.306667 324.266667l-61.866667 62.293333a62.293333 62.293333 0 0 0-21.76 21.76L393.813333 469.333333a116.906667 116.906667 0 0 1-3.413333-27.306666A122.026667 122.026667 0 0 1 512 320.853333a113.92 113.92 0 0 1 27.306667 3.413334zM537.6 561.493333L631.04 469.333333a122.026667 122.026667 0 0 1-93.44 92.16z"  horiz-adv-x="1024" />

    
    <glyph glyph-name="breadcrumbs" unicode="&#58956;" d="M817.785132 386.358113a166.143255 166.143255 0 0 1-57.079891 122.314053L355.030299 872.556473a101.928377 101.928377 0 0 1-121.294769 0 64.214878 64.214878 0 0 1 0-101.928377l407.713509-364.903591a30.578513 30.578513 0 0 0 0-46.887054l-407.713509-364.903591a64.214878 64.214878 0 0 1 0-101.928377 101.928377 101.928377 0 0 1 121.294769 0l407.713509 363.884307A166.143255 166.143255 0 0 1 817.785132 386.358113z"  horiz-adv-x="1024" />

    
    <glyph glyph-name="camera-on" unicode="&#58960;" d="M512 617.386667m-27.733333 0a27.733333 27.733333 0 1 1 55.466666 0 27.733333 27.733333 0 1 1-55.466666 0ZM633.6 442.88A121.6 121.6 0 1 1 512 320.853333a122.026667 122.026667 0 0 1 121.6 122.026667z m-187.733333 0A66.133333 66.133333 0 1 0 512 376.32a66.133333 66.133333 0 0 0-66.133333 66.56zM673.28 140.8h-35.84l-32.426667 90.453333a256 256 0 1 1-186.026666 0l-32.426667-90.453333h-35.84a27.733333 27.733333 0 0 1 0-55.466667h322.56a27.733333 27.733333 0 0 1 0 55.466667zM311.466667 469.333333a200.533333 200.533333 0 1 0 200.533333-200.533333A200.96 200.96 0 0 0 311.466667 469.333333z m161.28-252.586666A298.666667 298.666667 0 0 1 512 213.333333a298.666667 298.666667 0 0 1 39.253333 3.413334l27.306667-75.946667h-133.12z"  horiz-adv-x="1024" />

    
    <glyph glyph-name="drag" unicode="&#58962;" d="M570.368 406.016V757.76a59.392 59.392 0 1 1-118.784 0v-353.28a21.504 21.504 0 0 0-21.504-20.48 21.504 21.504 0 0 0-20.48 22.016V675.84a60.928 60.928 0 0 1-51.2 61.44 59.904 59.904 0 0 1-68.608-59.392v-311.808a13.824 13.824 0 0 0-26.112-6.144l-24.064 46.592A59.392 59.392 0 0 1 153.6 428.032a61.44 61.44 0 0 1-18.944-79.36l40.448-76.8 3.072-5.632 13.824-26.624c16.896-31.744 39.936-76.8 65.536-120.832a358.4 358.4 0 0 1 302.08-169.984c376.32 0 334.336 386.048 334.336 386.048V594.432a60.928 60.928 0 0 1-51.2 61.44 60.416 60.416 0 0 1-65.536-59.904v-189.952a21.504 21.504 0 0 0-21.504-22.016 21.504 21.504 0 0 0-21.504 22.016v296.96a60.928 60.928 0 0 1-53.76 61.44A59.392 59.392 0 0 1 614.4 705.024v-299.008a21.504 21.504 0 0 0-21.504-22.016 22.016 22.016 0 0 0-22.528 22.016z"  horiz-adv-x="1024" />

    
    <glyph glyph-name="enlarge" unicode="&#58964;" d="M909.824 44.544l-151.04 150.528A365.056 365.056 0 0 1 839.68 424.96a368.64 368.64 0 1 1-368.64-368.64 365.056 365.056 0 0 1 229.888 80.896l150.528-151.04a41.984 41.984 0 0 1 58.368 0 41.472 41.472 0 0 1 0 58.368zM184.32 424.96a286.72 286.72 0 1 0 286.72-286.72 286.72 286.72 0 0 0-286.72 286.72zM593.92 465.92H512V547.84a40.96 40.96 0 1 1-81.92 0v-81.92H348.16a40.96 40.96 0 0 1 0-81.92h81.92v-81.92a40.96 40.96 0 1 1 81.92 0V384h81.92a40.96 40.96 0 0 1 0 81.92z"  horiz-adv-x="1024" />

    
    <glyph glyph-name="eraser" unicode="&#58965;" d="M903.68 499.2l-276.48 276.48a60.416 60.416 0 0 1-85.504 0l-421.376-421.376a60.416 60.416 0 0 1 0-85.504l276.48-276.48a60.416 60.416 0 0 1 85.504 0l421.376 421.376a60.416 60.416 0 0 1 0 85.504z m-348.16-288.768l-87.04-87.04a40.96 40.96 0 0 0-57.856 0L251.392 281.6a40.96 40.96 0 0 0 0 57.856l87.04 87.04a40.96 40.96 0 0 0 57.856 0l159.232-159.232a40.96 40.96 0 0 0 0-56.832z"  horiz-adv-x="1024" />

    
    <glyph glyph-name="fullscreen-exit" unicode="&#58966;" d="M348.16 312.32h-153.6a40.96 40.96 0 0 1 0-81.92h153.6a10.24 10.24 0 0 0 10.24-10.24v-153.6a40.96 40.96 0 0 1 81.92 0v153.6a92.672 92.672 0 0 1-92.16 92.16zM675.84 455.68h153.6a40.96 40.96 0 1 1 0 81.92h-153.6a10.24 10.24 0 0 0-10.24 10.24v153.6a40.96 40.96 0 1 1-81.92 0v-153.6a92.672 92.672 0 0 1 92.16-92.16zM399.36 742.4a40.96 40.96 0 0 1-40.96-40.96v-153.6a10.24 10.24 0 0 0-10.24-10.24h-153.6a40.96 40.96 0 0 1 0-81.92h153.6a92.672 92.672 0 0 1 92.16 92.16v153.6a40.96 40.96 0 0 1-40.96 40.96zM829.44 312.32h-153.6a92.672 92.672 0 0 1-92.16-92.16v-153.6a40.96 40.96 0 1 1 81.92 0v153.6a10.24 10.24 0 0 0 10.24 10.24h153.6a40.96 40.96 0 0 1 0 81.92z"  horiz-adv-x="1024" />

    
    <glyph glyph-name="enlarge_1" unicode="&#58968;" d="M909.824 44.544l-151.04 150.528A365.056 365.056 0 0 1 839.68 424.96a368.64 368.64 0 1 1-368.64-368.64 365.056 365.056 0 0 1 229.888 80.896l150.528-151.04a41.984 41.984 0 0 1 58.368 0 41.472 41.472 0 0 1 0 58.368zM184.32 424.96a286.72 286.72 0 1 0 286.72-286.72 286.72 286.72 0 0 0-286.72 286.72zM593.92 465.92H512V547.84a40.96 40.96 0 1 1-81.92 0v-81.92H348.16a40.96 40.96 0 0 1 0-81.92h81.92v-81.92a40.96 40.96 0 1 1 81.92 0V384h81.92a40.96 40.96 0 0 1 0 81.92z"  horiz-adv-x="1024" />

    
    <glyph glyph-name="file-delete" unicode="&#58970;" d="M690.56 62.72H333.44l-48 285.44-84.48-14.08 59.52-357.76h503.04l59.52 357.76-84.48 14.08-48-285.44zM128 544h768v-102.4H128zM384 736h256v-102.4H384z"  horiz-adv-x="1024" />

    
    <glyph glyph-name="italic" unicode="&#58971;" d="M808.106667 768h-426.666667a55.466667 55.466667 0 0 1-52.906667-42.666667 32.426667 32.426667 0 0 1 33.28-40.96H512L384 82.773333H233.813333a52.906667 52.906667 0 0 1-50.346666-40.96 32.426667 32.426667 0 0 1 32.426666-41.813333h426.666667a54.613333 54.613333 0 0 1 52.906667 42.666667 32.426667 32.426667 0 0 1-33.28 40.96H512l128 601.6h150.186667A52.906667 52.906667 0 0 1 840.533333 725.333333a32.426667 32.426667 0 0 1-32.426666 42.666667z"  horiz-adv-x="1024" />

    
    <glyph glyph-name="fullscreen" unicode="&#58972;" d="M399.36 107.52h-153.6a10.24 10.24 0 0 0-10.24 10.24v153.6a40.96 40.96 0 0 1-81.92 0v-153.6A92.672 92.672 0 0 1 245.76 25.6h153.6a40.96 40.96 0 1 1 0 81.92zM778.24 742.4h-153.6a40.96 40.96 0 0 1 0-81.92h153.6a10.24 10.24 0 0 0 10.24-10.24v-153.6a40.96 40.96 0 0 1 81.92 0v153.6A92.672 92.672 0 0 1 778.24 742.4zM399.36 742.4h-153.6A92.672 92.672 0 0 1 153.6 650.24v-153.6a40.96 40.96 0 0 1 81.92 0v153.6a10.24 10.24 0 0 0 10.24 10.24h153.6a40.96 40.96 0 0 1 0 81.92zM829.44 312.32a40.96 40.96 0 0 1-40.96-40.96v-153.6a10.24 10.24 0 0 0-10.24-10.24h-153.6a40.96 40.96 0 0 1 0-81.92h153.6a92.672 92.672 0 0 1 92.16 92.16v153.6a40.96 40.96 0 0 1-40.96 40.96z"  horiz-adv-x="1024" />

    
    <glyph glyph-name="line" unicode="&#58973;" d="M103.0144 76.288l716.8 716.8 101.376-101.376-716.8-716.8z"  horiz-adv-x="1024" />

    
    <glyph glyph-name="laserpointer" unicode="&#58974;" d="M468.48 608.768a51.2 51.2 0 0 1-72.704 0L287.232 500.224a51.2 51.2 0 0 1 0-72.704L358.4 355.328 540.672 537.6zM939.008 138.24l-361.984 361.984-181.248-181.248 361.984-361.984a51.2 51.2 0 0 1 72.704 0l108.544 108.544a51.2 51.2 0 0 1 0 72.704zM569.856 652.288l35.84 36.352a40.448 40.448 0 0 1 0 57.856 40.96 40.96 0 0 1-57.856 0l-35.84-36.352a40.96 40.96 0 0 1 0-57.856 41.472 41.472 0 0 1 57.856 0zM392.704 691.2a40.96 40.96 0 0 1 40.96 40.96v51.2a40.96 40.96 0 1 1-81.92 0v-51.2a40.96 40.96 0 0 1 40.96-40.96zM222.208 615.936a40.96 40.96 0 0 1 57.856 57.856l-36.352 36.352a40.96 40.96 0 0 1-57.856-57.856zM204.8 503.296a40.96 40.96 0 0 1-40.96 40.96h-51.2a40.96 40.96 0 0 1 0-81.92h51.2a40.96 40.96 0 0 1 40.96 40.96zM185.856 384l-36.352-36.352a40.96 40.96 0 0 1 0-57.856 40.448 40.448 0 0 1 57.856 0l36.352 35.84a41.472 41.472 0 0 1 0 58.368 40.96 40.96 0 0 1-57.856 0z"  horiz-adv-x="1024" />

    
    <glyph glyph-name="list" unicode="&#58975;" d="M245.76 609.28h532.48a40.96 40.96 0 1 1 0 81.92H245.76a40.96 40.96 0 0 1 0-81.92zM778.24 158.72H245.76a40.96 40.96 0 1 1 0-81.92h532.48a40.96 40.96 0 0 1 0 81.92zM245.76 343.04h327.68a40.96 40.96 0 0 1 0 81.92H245.76a40.96 40.96 0 0 1 0-81.92z"  horiz-adv-x="1024" />

    
    <glyph glyph-name="mktool-packup" unicode="&#58976;" d="M514.56 230.4a78.848 78.848 0 0 0-51.2 18.944L218.624 465.408a40.96 40.96 0 0 0-3.584 57.856 40.96 40.96 0 0 0 57.856 3.584l241.664-212.992 236.544 208.896a40.96 40.96 0 1 0 54.272-61.44L563.2 249.344a75.264 75.264 0 0 0-48.64-18.944z"  horiz-adv-x="1024" />

    
    <glyph glyph-name="mktool-unfold" unicode="&#58977;" d="M245.76 230.4a40.96 40.96 0 0 0-27.136 71.68L460.8 518.144a78.336 78.336 0 0 0 102.4 0l240.64-211.968a40.96 40.96 0 1 0-54.272-61.44l-235.008 209.408-241.664-212.992a38.912 38.912 0 0 0-27.136-10.752z"  horiz-adv-x="1024" />

    
    <glyph glyph-name="more" unicode="&#58978;" d="M298.666667 362.666667m-64 0a64 64 0 1 1 128 0 64 64 0 1 1-128 0ZM512 362.666667m-64 0a64 64 0 1 1 128 0 64 64 0 1 1-128 0ZM725.333333 362.666667m-64 0a64 64 0 1 1 128 0 64 64 0 1 1-128 0Z"  horiz-adv-x="1024" />

    
    <glyph glyph-name="mic-off" unicode="&#58979;" d="M298.666667 717.226667a27.306667 27.306667 0 0 1-39.253334 0 26.88 26.88 0 0 1 0-38.826667l456.533334-456.96a28.16 28.16 0 0 1 19.626666-8.106667 29.866667 29.866667 0 0 1 19.626667 8.106667 28.16 28.16 0 0 1 0 39.253333zM359.68 501.333333v-56.32A146.773333 146.773333 0 0 1 506.026667 298.666667H512a142.08 142.08 0 0 1 42.666667 7.253333l-48.213334 48.213333a90.88 90.88 0 0 0-90.88 90.88zM506.026667 669.866667H512a90.88 90.88 0 0 0 90.88-90.453334v-85.333333l54.613333-54.613333V579.413333A146.346667 146.346667 0 0 1 512 725.333333h-5.973333a147.2 147.2 0 0 1-97.706667-37.546666l39.253333-39.253334a90.026667 90.026667 0 0 0 58.453334 21.333334zM748.373333 406.186667a27.306667 27.306667 0 0 1-34.56-17.92 42.666667 42.666667 0 0 0 0-4.266667l42.666667-42.666667a319.573333 319.573333 0 0 1 11.946667 30.293334 27.306667 27.306667 0 0 1-20.053334 34.56zM642.133333 218.88l-42.666666 42.666667a204.373333 204.373333 0 0 0-87.466667-22.613334 213.333333 213.333333 0 0 0-201.386667 147.626667 27.733333 27.733333 0 0 1-52.906666-17.066667 265.813333 265.813333 0 0 1 226.986666-183.466666v-45.226667h-42.666666a27.733333 27.733333 0 1 1 0-55.466667h140.8a27.733333 27.733333 0 1 1 0 55.466667h-42.666667v44.8a278.186667 278.186667 0 0 1 101.973333 33.28z"  horiz-adv-x="1024" />

    
    <glyph glyph-name="mic-on" unicode="&#58980;" d="M506.026667 298.666667H512a146.773333 146.773333 0 0 1 146.346667 146.346666V579.413333A146.346667 146.346667 0 0 1 512 725.333333h-5.973333a146.346667 146.346667 0 0 1-146.346667-145.92v-134.4A146.773333 146.773333 0 0 1 506.026667 298.666667zM415.146667 579.413333a90.88 90.88 0 0 0 90.88 90.88H512a91.306667 91.306667 0 0 0 90.88-90.88v-134.4A91.306667 91.306667 0 0 0 512 354.133333h-5.973333a90.88 90.88 0 0 0-90.88 90.88zM748.373333 406.186667a27.306667 27.306667 0 0 1-34.56-17.92A213.333333 213.333333 0 0 0 512 238.933333a213.333333 213.333333 0 0 0-201.386667 147.626667 27.733333 27.733333 0 0 1-52.906666-17.066667 265.813333 265.813333 0 0 1 226.986666-183.466666v-45.226667h-42.666666a27.733333 27.733333 0 1 1 0-55.466667h140.8a27.733333 27.733333 0 1 1 0 55.466667h-42.666667v45.226667A268.8 268.8 0 0 1 768 371.626667a27.306667 27.306667 0 0 1-19.626667 34.56z"  horiz-adv-x="1024" />

    
    <glyph glyph-name="page-back" unicode="&#58981;" d="M668.16 0a49.28 49.28 0 0 0-32.64 12.16l-360.96 300.8A50.56 50.56 0 0 0 256 352a53.12 53.12 0 0 0 18.56 39.68l360.96 300.8a51.84 51.84 0 0 0 72.32-7.04 50.56 50.56 0 0 0-3.84-71.68L387.2 352 704 90.88a51.2 51.2 0 0 0-35.84-90.88z"  horiz-adv-x="1024" />

    
    <glyph glyph-name="narrow" unicode="&#58982;" d="M909.824 44.544l-151.04 150.528A365.056 365.056 0 0 1 839.68 424.96a368.64 368.64 0 1 1-368.64-368.64 365.056 365.056 0 0 1 229.888 80.896l150.528-151.04a41.984 41.984 0 0 1 58.368 0 41.472 41.472 0 0 1 0 58.368zM184.32 424.96a286.72 286.72 0 1 0 286.72-286.72 286.72 286.72 0 0 0-286.72 286.72zM593.92 465.92H348.16a40.96 40.96 0 0 1 0-81.92h245.76a40.96 40.96 0 0 1 0 81.92z"  horiz-adv-x="1024" />

    
    <glyph glyph-name="play" unicode="&#58983;" d="M860.16 472.96L266.24 815.36a102.4 102.4 0 0 1-153.6-88.32v-686.08a102.4 102.4 0 0 1 153.6-88.32l593.92 342.4a103.04 103.04 0 0 1 0 177.92z"  horiz-adv-x="1024" />

    
    <glyph glyph-name="rectangle" unicode="&#58984;" d="M153.6 691.2v-614.4h716.8V691.2z m573.44-471.04H296.96V547.84h430.08z"  horiz-adv-x="1024" />

    
    <glyph glyph-name="oval" unicode="&#58985;" d="M512 742.4a358.4 358.4 0 1 1 358.4-358.4 358.4 358.4 0 0 1-358.4 358.4z m0-573.44a215.04 215.04 0 1 0 215.04 215.04 215.04 215.04 0 0 0-215.04-215.04z"  horiz-adv-x="1024" />

    
    <glyph glyph-name="packup" unicode="&#58986;" d="M751.104 369.152l-236.544-208.896-241.664 212.992a40.96 40.96 0 0 1-57.856-3.584 40.96 40.96 0 0 1 3.584-57.856L460.8 96.256a78.848 78.848 0 0 1 51.2-18.944 75.264 75.264 0 0 1 51.2 18.432l240.64 211.968a40.96 40.96 0 1 1-54.272 61.44zM460.8 403.456a78.848 78.848 0 0 1 51.2-18.944 75.264 75.264 0 0 1 51.2 18.432l240.64 211.968a40.96 40.96 0 1 1-54.272 61.44l-235.008-208.896-241.664 212.992a40.96 40.96 0 0 1-57.856-3.584 40.96 40.96 0 0 1 3.584-57.856z"  horiz-adv-x="1024" />

    
    <glyph glyph-name="pause" unicode="&#58987;" d="M800 819.2a83.2 83.2 0 0 1-83.2-83.2v-704a83.2 83.2 0 0 1 166.4 0v704a83.2 83.2 0 0 1-83.2 83.2zM224 819.2a83.2 83.2 0 0 1-83.2-83.2v-704a83.2 83.2 0 1 1 166.4 0v704a83.2 83.2 0 0 1-83.2 83.2z"  horiz-adv-x="1024" />

    
    <glyph glyph-name="revoke" unicode="&#58988;" d="M627.2 609.28H409.6V742.4L102.4 537.6l307.2-204.8V465.92h217.6a145.92 145.92 0 0 0 0-291.84H563.2v-143.36h64a289.28 289.28 0 0 1 0 578.56z"  horiz-adv-x="1024" />

    
    <glyph glyph-name="refresh" unicode="&#58989;" d="M980.114286 432.274286V822.857143l-131.657143-131.657143a468.114286 468.114286 0 0 1-146.285714 100.937143 473.234286 473.234286 0 0 1-365.714286 0 468.114286 468.114286 0 0 1-292.571429-433.005714 474.697143 474.697143 0 0 1 36.571429-182.857143 475.428571 475.428571 0 0 1 250.148571-250.148572 475.428571 475.428571 0 0 1 365.714286 0 475.428571 475.428571 0 0 1 250.148571 250.148572 58.514286 58.514286 0 0 1-108.251428 45.348571 351.817143 351.817143 0 0 0-187.245714-187.245714 358.4 358.4 0 0 0-275.017143 0 351.817143 351.817143 0 0 0-187.245715 187.245714 354.011429 354.011429 0 0 0 0 275.017143 352.548571 352.548571 0 0 0 574.171429 111.908571L591.725714 432.274286z"  horiz-adv-x="1024" />

    
    <glyph glyph-name="problem" unicode="&#58990;" d="M512 896a512 512 0 1 1 512-512 512 512 0 0 1-512 512z m0-921.6A409.6 409.6 0 1 0 921.6 384 409.6 409.6 0 0 0 512-25.6zM523.702857 676.571429a172.617143 172.617143 0 0 1-190.171428-171.885715h110.445714c8.777143 57.782857 35.108571 87.771429 79.725714 89.965715S585.142857 573.44 585.142857 530.285714c0-25.6-19.017143-54.125714-61.44-84.845714a146.285714 146.285714 0 0 1-67.291428-128.731429v-25.6h108.251428v24.137143a96.548571 96.548571 0 0 0 51.2 79.725715 168.228571 168.228571 0 0 1 87.771429 146.285714C698.514286 626.102857 638.537143 672.182857 523.702857 676.571429zM451.291429 256h120.685714v-120.685714H451.291429z"  horiz-adv-x="1024" />

    
    <glyph glyph-name="redo" unicode="&#58991;" d="M921.6 537.6l-307.2 204.8v-133.12H396.8a289.28 289.28 0 0 1 0-578.56H460.8v143.36H396.8a145.92 145.92 0 0 0 0 291.84H614.4V332.8z"  horiz-adv-x="1024" />

    
    <glyph glyph-name="page-next" unicode="&#58992;" d="M355.84 0a51.2 51.2 0 0 0-32.64 90.88L640 352 323.2 613.76a50.56 50.56 0 0 0-7.04 71.68 51.84 51.84 0 0 0 72.32 7.04l360.96-300.8a53.12 53.12 0 0 0 18.56-39.68 50.56 50.56 0 0 0-18.56-39.04l-360.96-300.8a49.28 49.28 0 0 0-32.64-12.16z"  horiz-adv-x="1024" />

    
    <glyph glyph-name="select" unicode="&#58993;" d="M153.6 714.24L358.4 56.32a44.032 44.032 0 0 1 82.944-2.56l92.672 246.784a102.4 102.4 0 0 0 59.392 59.904l247.296 92.672a43.52 43.52 0 0 1 0 82.432L181.76 742.4a21.504 21.504 0 0 1-28.16-28.16z"  horiz-adv-x="1024" />

    
    <glyph glyph-name="setting_mirror" unicode="&#58995;" d="M849.92 221.866667L597.333333 666.026667a33.28 33.28 0 0 1-31.146666 16.64h-5.973334a26.453333 26.453333 0 0 1-23.466666-25.6v-454.4a29.866667 29.866667 0 0 1 29.013333-32h256a34.986667 34.986667 0 0 1 28.16 51.2z m-244.48 17.066666V512l156.16-272.213333zM466.346667 682.666667h-4.693334a36.693333 36.693333 0 0 1-30.293333-19.626667l-256-443.733333a36.693333 36.693333 0 0 1 9.813333-42.666667 26.88 26.88 0 0 1 15.786667-3.413333h259.84c16.213333 0 26.026667 10.666667 26.026667 32.853333V660.48a23.466667 23.466667 0 0 1-20.48 22.186667zM418.56 239.786667H264.533333l154.026667 265.386666z"  horiz-adv-x="1024" />

    
    <glyph glyph-name="toptool-file" unicode="&#58996;" d="M768 597.333333h-213.333333l-30.72 61.866667a42.666667 42.666667 0 0 1-38.4 23.466667H256a42.666667 42.666667 0 0 1-42.666667-42.666667v-469.333333a42.666667 42.666667 0 0 1 42.666667-42.666667h512a42.666667 42.666667 0 0 1 42.666667 42.666667V554.666667a42.666667 42.666667 0 0 1-42.666667 42.666666z m-106.666667-213.333333h-298.666666a42.666667 42.666667 0 0 0 0 85.333333h298.666666a42.666667 42.666667 0 0 0 0-85.333333z"  horiz-adv-x="1024" />

    
    <glyph glyph-name="prompt" unicode="&#58998;" d="M512 896a512 512 0 1 1 512-512 512 512 0 0 1-512 512z m0-950.857143a438.857143 438.857143 0 1 0 438.857143 438.857143 438.857143 438.857143 0 0 0-438.857143-438.857143zM512 300.617143a62.171429 62.171429 0 0 1 62.171429 62.171428V603.428571a62.171429 62.171429 0 1 1-124.342858 0v-241.371428a62.171429 62.171429 0 0 1 62.171429-61.44zM512 174.811429m-73.142857 0a73.142857 73.142857 0 1 1 146.285714 0 73.142857 73.142857 0 1 1-146.285714 0Z"  horiz-adv-x="1024" />

    
    <glyph glyph-name="toptool-toolbox" unicode="&#58999;" d="M768 554.666667H256a42.666667 42.666667 0 0 1-42.666667-42.666667v-42.666667h597.333334V512a42.666667 42.666667 0 0 1-42.666667 42.666667zM418.133333 597.333333h187.733334v-42.666666h85.333333V597.333333a85.333333 85.333333 0 0 1-85.333333 85.333334H418.133333a85.333333 85.333333 0 0 1-85.333333-85.333334v-42.666666h85.333333zM213.333333 170.666667a42.666667 42.666667 0 0 1 42.666667-42.666667h512a42.666667 42.666667 0 0 1 42.666667 42.666667v213.333333H213.333333z m170.666667 213.333333h85.333333v-42.666667h85.333334v42.666667h85.333333v-42.666667a85.333333 85.333333 0 0 0-85.333333-85.333333h-85.333334a85.333333 85.333333 0 0 0-85.333333 85.333333z"  horiz-adv-x="1024" />

    
    <glyph glyph-name="close" unicode="&#59000;" d="M608.426667 384l336.213333 335.36A69.12 69.12 0 0 1 847.36 816.64L512 480.426667 176.64 816.64A69.12 69.12 0 0 1 79.36 719.36L415.573333 384 79.36 48.64a69.12 69.12 0 0 1 0-97.28 72.533333 72.533333 0 0 1 48.64-19.626667 72.533333 72.533333 0 0 1 48.64 19.626667L512 287.573333l335.36-336.213333a69.973333 69.973333 0 0 1 97.28 0 69.12 69.12 0 0 1 0 97.28z"  horiz-adv-x="1024" />

    
    <glyph glyph-name="file-back" unicode="&#59001;" d="M206.215172 386.35862a166.14309 166.14309 0 0 0 57.079835 122.313931l407.713103 363.883946a101.928276 101.928276 0 0 0 121.294649 0 64.214814 64.214814 0 0 0 0-101.928276l-407.713104-364.903228a30.578483 30.578483 0 0 1 0-46.887007l407.713104-364.903228a64.214814 64.214814 0 0 0 0-101.928276 101.928276 101.928276 0 0 0-121.294649 0l-407.713103 363.883945A166.14309 166.14309 0 0 0 206.215172 386.35862z"  horiz-adv-x="1024" />

    


  </font>
</defs>
</svg>
